<?xml version="1.0" encoding="UTF-8"?>
<svg version="1.1" xmlns="http://www.w3.org/2000/svg" width="633" height="199">
<path d="M0 0 C208.89 0 417.78 0 633 0 C633 65.67 633 131.34 633 199 C424.11 199 215.22 199 0 199 C0 133.33 0 67.66 0 0 Z " fill="#020101" transform="translate(0,0)"/>
<path d="M0 0 C0.87312185 -0.00445784 1.74624369 -0.00891569 2.64582378 -0.01350862 C4.08568252 -0.01323207 4.08568252 -0.01323207 5.55462933 -0.01294994 C7.08345628 -0.01846498 7.08345628 -0.01846498 8.64316863 -0.02409142 C12.07473539 -0.03514661 15.50627189 -0.03897519 18.93785381 -0.04278088 C21.39158506 -0.04904405 23.84531536 -0.05569072 26.29904461 -0.0626936 C33.67348738 -0.08193253 41.04792212 -0.09252275 48.42238262 -0.10142139 C51.89484801 -0.10580476 55.36731186 -0.11117139 58.83977604 -0.11641026 C70.38206478 -0.13342082 81.92435257 -0.14791565 93.46665192 -0.155159 C96.46160985 -0.15706889 99.45656778 -0.15898923 102.45152569 -0.16094494 C103.56810068 -0.16167055 103.56810068 -0.16167055 104.70723274 -0.16241082 C116.76957444 -0.17071367 128.83181706 -0.19605561 140.89411549 -0.22852562 C153.27691732 -0.26158682 165.65966877 -0.27960684 178.04251498 -0.28280324 C184.99560866 -0.28496906 191.94855778 -0.29372826 198.90160847 -0.31926441 C205.4408421 -0.34322533 211.9798621 -0.34680302 218.51914692 -0.33650303 C220.92096096 -0.33600609 223.32278755 -0.34237276 225.72456264 -0.35605907 C229.00034576 -0.37368345 232.27518437 -0.36671778 235.55096722 -0.35352612 C236.98078772 -0.36997998 236.98078772 -0.36997998 238.43949348 -0.38676625 C244.03273876 -0.33228495 247.34898452 0.32448464 251.74327374 4.13422108 C254.06863465 7.62226246 253.99800719 8.99038909 254.01069927 13.11122608 C254.02349422 14.98496906 254.02349422 14.98496906 254.03654766 16.89656544 C254.03584861 18.28348268 254.03492553 19.67039982 254.03380108 21.05731678 C254.0397846 22.51598932 254.04658973 23.97465868 254.0541563 25.43332386 C254.07184355 29.39831555 254.07651288 33.36322094 254.07778788 37.32824826 C254.07968629 40.63829976 254.08704332 43.94833112 254.09413207 47.25837487 C254.11042468 55.06913279 254.1153003 62.8798446 254.1138792 70.69061756 C254.11267815 78.74600873 254.13377064 86.80113181 254.16536653 94.85645515 C254.191528 101.77291318 254.20224653 108.68928366 254.20096838 115.60579079 C254.20045862 119.73640433 254.2061491 123.86677978 254.22732449 127.99734402 C254.24670436 131.8839256 254.2468334 135.77004196 254.23229122 139.65664005 C254.23020154 141.08124249 254.23491362 142.50587401 254.24701214 143.9304266 C254.35150947 157.0894796 254.35150947 157.0894796 249.74327374 162.13422108 C249.08327374 163.12422108 248.42327374 164.11422108 247.74327374 165.13422108 C245.87904537 165.50681657 245.87904537 165.50681657 243.56160069 165.50336456 C242.23890401 165.51232428 242.23890401 165.51232428 240.88948619 165.521465 C239.91479291 165.51272648 238.94009962 165.50398795 237.93587017 165.49498463 C236.90510613 165.4975479 235.87434208 165.50011118 234.81234276 165.50275213 C231.33587611 165.50771919 227.85983752 165.4911488 224.38341045 165.47479725 C221.9003885 165.47395161 219.4173658 165.47442488 216.93434429 165.47612476 C211.57698654 165.47680936 206.21976369 165.46826451 200.86244106 165.45141125 C193.11661611 165.42705997 185.3708442 165.41921996 177.62498511 165.41544727 C165.05875314 165.40887669 152.49257949 165.38889911 139.9263792 165.36053944 C127.7173978 165.33301454 115.50843223 165.31177329 103.29942608 165.299016 C102.54722864 165.29822783 101.7950312 165.29743966 101.0200399 165.2966276 C97.24659531 165.29271257 93.47315061 165.28892143 89.69970584 165.28519189 C58.38085272 165.2540771 27.06207207 165.20100229 -4.25672626 165.13422108 C-4.25672626 164.47422108 -4.25672626 163.81422108 -4.25672626 163.13422108 C-4.85485126 163.05172108 -5.45297626 162.96922108 -6.06922626 162.88422108 C-8.981904 161.88558871 -9.69209485 160.77114166 -11.25672626 158.13422108 C-11.63145638 155.31339073 -11.63145638 155.31339073 -11.63094807 151.99226856 C-11.63796238 150.7318726 -11.64497669 149.47147663 -11.65220356 148.17288685 C-11.64477602 146.77856763 -11.63704488 145.38425 -11.62904072 143.98993397 C-11.63146905 142.51964021 -11.63518878 141.0493481 -11.64010334 139.57906055 C-11.64951117 135.58726534 -11.64008746 131.59571537 -11.62677121 127.60393929 C-11.61545524 123.42624293 -11.61956439 119.24855861 -11.62151814 115.07085133 C-11.62240116 108.05392927 -11.61131973 101.03710381 -11.59290791 94.02020741 C-11.57174838 85.90974797 -11.56822861 77.79943013 -11.57446986 69.68894869 C-11.58016691 61.8859982 -11.57451331 54.08309754 -11.56329632 46.28015423 C-11.558654 42.96009302 -11.5577749 39.64006231 -11.55988216 36.31999874 C-11.5617674 32.40887444 -11.55364311 28.49789399 -11.53782177 24.58680248 C-11.53358316 23.15211679 -11.53272553 21.71741649 -11.53551197 20.28272724 C-11.5387406 18.32286396 -11.52841451 16.36299236 -11.51742268 14.40315723 C-11.51536981 13.30680989 -11.51331694 12.21046255 -11.51120186 11.08089256 C-11.25067107 8.06410558 -10.53087782 5.86486841 -9.25672626 3.13422108 C-8.59672626 3.13422108 -7.93672626 3.13422108 -7.25672626 3.13422108 C-7.25672626 2.47422108 -7.25672626 1.81422108 -7.25672626 1.13422108 C-4.49113466 0.21235721 -2.85137345 0.00675437 0 0 Z " fill="#F7981E" transform="translate(363.2567262649536,17.865778923034668)"/>
<path d="M0 0 C9.384375 -0.0825 18.76875 -0.165 28.4375 -0.25 C31.38357178 -0.28641602 34.32964355 -0.32283203 37.36499023 -0.36035156 C39.72118401 -0.37204287 42.07738591 -0.38223365 44.43359375 -0.390625 C45.63987427 -0.41108887 46.84615479 -0.43155273 48.08898926 -0.45263672 C55.37008838 -0.45562844 60.64296108 0.43189181 67 4 C67.69794174 4.33723083 68.39588348 4.67446167 69.11497498 5.02191162 C73.84709591 7.47728088 75.81193604 11.31129152 78 16 C78.33 16.33 78.66 16.66 79 17 C79.79767091 25.93391418 79.93784564 33.78398051 74 41 C69.90243902 45 69.90243902 45 66 45 C66 45.99 66 46.98 66 48 C66.99 48.0928125 66.99 48.0928125 68 48.1875 C73.92005823 49.7908491 78.5727834 52.71470228 82 57.875 C85.56439182 65.14926901 85.38532327 73.82969925 82.8671875 81.41015625 C81.68689537 84.02366024 80.4420448 86.52277305 79 89 C78.34 89 77.68 89 77 89 C76.79375 89.556875 76.5875 90.11375 76.375 90.6875 C74.14710966 94.43440649 71.28917498 97.16300612 67.18788147 98.66256714 C60.13634648 100.30995787 53.20862495 100.25437633 45.99609375 100.1953125 C44.24045105 100.19229126 44.24045105 100.19229126 42.44934082 100.18920898 C38.1120202 100.17881077 33.77475582 100.15088859 29.4375 100.125 C19.723125 100.08375 10.00875 100.0425 0 100 C0 67 0 34 0 0 Z " fill="#F6F6F6" transform="translate(16,50)"/>
<path d="M0 0 C6.6 0 13.2 0 20 0 C20.33 11.22 20.66 22.44 21 34 C23.31 32.02 25.62 30.04 28 28 C36.08444647 24.43333244 45.1226553 24.92729092 53.3125 27.9375 C60.93439352 31.5319729 65.94245754 37.01581197 69.5 44.625 C71.36745137 50.4846474 71.38296155 56.40240607 71.4375 62.5 C71.45296875 63.94173584 71.45296875 63.94173584 71.46875 65.41259766 C71.36697326 73.71729661 69.94263659 81.61731407 66 89 C65.34 89 64.68 89 64 89 C63.93039062 89.58523437 63.86078125 90.17046875 63.7890625 90.7734375 C62.16295772 95.36195098 57.0134772 97.61116875 53 100 C46.73901481 102.71703131 39.71428403 102.91594622 33 102 C27.03037936 99.58468664 22.23514122 95.79982671 18 91 C18 94.3 18 97.6 18 101 C12.06 101 6.12 101 0 101 C0 67.67 0 34.34 0 0 Z " fill="#050104" transform="translate(530,50)"/>
<path d="M0 0 C6.6 0 13.2 0 20 0 C20.33 11.22 20.66 22.44 21 34 C24.3 31.69 27.6 29.38 31 27 C37.92425357 24.69191548 47.36465921 24.85546534 54.125 27.6875 C60.42198577 31.07272167 63.70307384 35.22406782 66 42 C67.07036472 48.57490103 67.1456446 55.03206613 67.1328125 61.68359375 C67.13376923 62.77970474 67.13472595 63.87581573 67.13571167 65.00514221 C67.136389 67.30705829 67.13456607 69.60897632 67.13037109 71.91088867 C67.12498035 75.45040092 67.13034964 78.98978835 67.13671875 82.52929688 C67.1360586 84.76822945 67.13477874 87.00716194 67.1328125 89.24609375 C67.13483673 90.30952499 67.13686096 91.37295624 67.13894653 92.46861267 C67.13421829 93.93132347 67.13421829 93.93132347 67.12939453 95.42358398 C67.12859894 96.28547836 67.12780334 97.14737274 67.12698364 98.03538513 C67 100 67 100 66 101 C64.58429877 101.08651611 63.164405 101.10704904 61.74609375 101.09765625 C60.89208984 101.09443359 60.03808594 101.09121094 59.15820312 101.08789062 C58.26037109 101.07951172 57.36253906 101.07113281 56.4375 101.0625 C55.53580078 101.05798828 54.63410156 101.05347656 53.70507812 101.04882812 C51.46998686 101.03700225 49.23502563 101.0205222 47 101 C46.99191315 100.34711502 46.98382629 99.69423004 46.97549438 99.02156067 C46.88941626 92.22438119 46.78991084 85.42749224 46.68261719 78.63061523 C46.64434157 76.09420655 46.60948624 73.55774384 46.578125 71.02124023 C46.53244437 67.37464089 46.4744537 63.72841298 46.4140625 60.08203125 C46.40251129 58.94852737 46.39096008 57.8150235 46.37905884 56.64717102 C46.35918915 55.58644882 46.33931946 54.52572662 46.31884766 53.43286133 C46.30552399 52.50242508 46.29220032 51.57198883 46.2784729 50.61335754 C45.97329331 47.7493683 45.26312581 45.58225709 44 43 C38.95563818 40.47781909 31.33004657 41.93399069 26 43 C26 43.66 26 44.32 26 45 C24.66666667 46.33333333 23.33333333 47.66666667 22 49 C21.03619923 51.8914023 20.84887976 53.82653923 20.79467773 56.83862305 C20.77473251 57.8194133 20.75478729 58.80020355 20.73423767 59.81071472 C20.70916893 61.39521172 20.70916893 61.39521172 20.68359375 63.01171875 C20.66281265 64.09508011 20.64203156 65.17844147 20.62062073 66.29463196 C20.55518203 69.75885616 20.49626647 73.2231568 20.4375 76.6875 C20.39430939 79.03451315 20.35069493 81.38151853 20.30664062 83.72851562 C20.19950639 89.48559854 20.09822273 95.24275842 20 101 C13.4 101 6.8 101 0 101 C0 67.67 0 34.34 0 0 Z " fill="#040102" transform="translate(371,50)"/>
<path d="M0 0 C6.6 0 13.2 0 20 0 C20 16.83 20 33.66 20 51 C24.69637331 46.51035125 24.69637331 46.51035125 27.1875 43.1875 C27.785625 42.465625 28.38375 41.74375 29 41 C29.66 41 30.32 41 31 41 C31.309375 40.38125 31.61875 39.7625 31.9375 39.125 C32.625 37.75 33.3125 36.375 34 35 C34.66 35 35.32 35 36 35 C36.28875 34.401875 36.5775 33.80375 36.875 33.1875 C38 31 38 31 40 28 C42.43017578 27.65942383 42.43017578 27.65942383 45.4453125 27.70703125 C46.52167969 27.71669922 47.59804687 27.72636719 48.70703125 27.73632812 C49.83496094 27.76146484 50.96289062 27.78660156 52.125 27.8125 C53.26066406 27.82603516 54.39632812 27.83957031 55.56640625 27.85351562 C58.37807387 27.88895681 61.18880417 27.93836483 64 28 C60.77929739 34.68694135 55.73414196 39.41268643 50 44 C47.34552129 46.47423632 44.94360592 48.92358234 43 52 C42.81619634 55.71936606 42.81619634 55.71936606 44 59 C44.185625 59.804375 44.37125 60.60875 44.5625 61.4375 C44.706875 61.953125 44.85125 62.46875 45 63 C45.66 63 46.32 63 47 63 C48.16593862 65.08940328 49.32882134 67.18042964 50.48828125 69.2734375 C51.54368265 71.17697801 52.6039715 73.07781332 53.66796875 74.9765625 C54.21066406 75.95367187 54.75335938 76.93078125 55.3125 77.9375 C55.82425781 78.85402344 56.33601563 79.77054687 56.86328125 80.71484375 C58 83 58 83 58 85 C58.66 85 59.32 85 60 85 C61.16907584 87.31131066 62.33535892 89.62395623 63.5 91.9375 C63.83386719 92.59685547 64.16773438 93.25621094 64.51171875 93.93554688 C67 98.88671875 67 98.88671875 67 100 C60.07 100 53.14 100 46 100 C39.83928571 87.8125 39.83928571 87.8125 38 83 C37.34 83 36.68 83 36 83 C32.535 76.07 32.535 76.07 29 69 C25.88214887 69.64644661 25.88214887 69.64644661 25 72 C24.34 72 23.68 72 23 72 C22.67 72.99 22.34 73.98 22 75 C21.34 75 20.68 75 20 75 C20.00785522 76.1281311 20.00785522 76.1281311 20.01586914 77.27905273 C20.03657227 80.66519342 20.04963877 84.05132084 20.0625 87.4375 C20.07087891 88.62150391 20.07925781 89.80550781 20.08789062 91.02539062 C20.09272461 92.71245117 20.09272461 92.71245117 20.09765625 94.43359375 C20.10551147 95.99678345 20.10551147 95.99678345 20.11352539 97.59155273 C20 100 20 100 19 101 C12.73 101 6.46 101 0 101 C0 67.67 0 34.34 0 0 Z " fill="#F4F4F4" transform="translate(144,50)"/>
<path d="M0 0 C3.31294893 2.92759784 4.6619319 5.06271325 6.41796875 9.13671875 C6.78535156 9.82894531 7.15273438 10.52117187 7.53125 11.234375 C11.67746621 19.76902624 10.41796875 24.46080454 10.41796875 35.13671875 C-5.42203125 35.13671875 -21.26203125 35.13671875 -37.58203125 35.13671875 C-35.97093864 42.27022419 -35.97093864 42.27022419 -33.58203125 49.13671875 C-31.54959577 50.10548932 -31.54959577 50.10548932 -29.58203125 50.13671875 C-29.58203125 50.79671875 -29.58203125 51.45671875 -29.58203125 52.13671875 C-20.97771761 52.9763784 -20.97771761 52.9763784 -13.33203125 49.82421875 C-11.4634625 47.20213378 -11.4634625 47.20213378 -10.58203125 44.13671875 C3.05122615 45.10027228 3.05122615 45.10027228 9.41796875 46.13671875 C8.23488456 52.02494235 5.05547606 57.83093916 0.5234375 61.79296875 C-1.4608127 63.07666513 -3.4453137 64.1297599 -5.58203125 65.13671875 C-6.73703125 65.73484375 -7.89203125 66.33296875 -9.08203125 66.94921875 C-19.52976878 70.52074396 -32.81840358 68.74350082 -42.58203125 64.13671875 C-49.55503447 59.58524937 -53.81551353 51.0777319 -56.14208984 43.25317383 C-56.98046952 39.21992554 -56.80909885 35.11661896 -56.83203125 31.01171875 C-56.85265625 30.11195312 -56.87328125 29.2121875 -56.89453125 28.28515625 C-56.94297588 19.85579143 -55.43519267 12.0269082 -50.51953125 5.01171875 C-50.01292969 4.26664063 -49.50632813 3.5215625 -48.984375 2.75390625 C-48.52160156 2.22023438 -48.05882812 1.6865625 -47.58203125 1.13671875 C-46.92203125 1.13671875 -46.26203125 1.13671875 -45.58203125 1.13671875 C-45.58203125 0.47671875 -45.58203125 -0.18328125 -45.58203125 -0.86328125 C-32.12359127 -12.0786479 -13.29711582 -10.21585312 0 0 Z " fill="#F9F9F9" transform="translate(268.58203125,83.86328125)"/>
<path d="M0 0 C6.27 0 12.54 0 19 0 C19.01458252 1.37663818 19.02916504 2.75327637 19.04418945 4.17163086 C19.10243927 9.3100703 19.17967008 14.44808371 19.26245117 19.58618164 C19.29557536 21.80420993 19.32364569 24.02231997 19.34643555 26.24047852 C19.38021202 29.44061924 19.43253953 32.64001913 19.48828125 35.83984375 C19.49467117 36.82145981 19.5010611 37.80307587 19.50764465 38.81443787 C19.63400932 44.81722573 20.16106105 50.59876387 23 56 C27.2375911 58.82506073 31.02195359 58.54869841 36 58 C38.9254644 56.6490712 38.9254644 56.6490712 41 55 C41.66 55 42.32 55 43 55 C43.66 52.36 44.32 49.72 45 47 C45.66 47 46.32 47 47 47 C47 31.49 47 15.98 47 0 C53.27 0 59.54 0 66 0 C66 23.76 66 47.52 66 72 C60.06 72 54.12 72 48 72 C48 69.03 48 66.06 48 63 C47.34 63 46.68 63 46 63 C45.62101562 63.90878906 45.62101562 63.90878906 45.234375 64.8359375 C42.72400232 69.2370339 37.64584809 71.23193756 33.1875 73.3125 C24.31784142 75.22556362 16.07324512 74.23943504 8 70 C3.64895723 66.67708643 1.58786725 62.13074381 0 57 C-0.51888801 52.54091572 -0.467748 48.13644418 -0.390625 43.65234375 C-0.38496521 42.39990372 -0.37930542 41.14746368 -0.37347412 39.85707092 C-0.35498158 36.55734959 -0.31916413 33.2584374 -0.2746582 29.95898438 C-0.23344329 26.58017788 -0.21540771 23.20125204 -0.1953125 19.82226562 C-0.15137078 13.21449134 -0.08240632 6.607402 0 0 Z " fill="#040103" transform="translate(451,78)"/>
<path d="M0 0 C-0.53753096 6.18160604 -2.54582388 11.326858 -5 17 C-5.73089844 16.84015625 -6.46179688 16.6803125 -7.21484375 16.515625 C-12.00514165 15.62878163 -16.85982833 15.12198086 -21.4375 17 C-28.81174548 26.43903421 -26.26516805 45.22565632 -26.5625 56.75 C-26.60581478 58.33334171 -26.64943256 59.91667515 -26.69335938 61.5 C-26.79961562 65.33324429 -26.89968215 69.16657758 -27 73 C-33.27 73 -39.54 73 -46 73 C-46 48.91 -46 24.82 -46 0 C-40.39 0 -34.78 0 -29 0 C-29 2.97 -29 5.94 -29 9 C-28.34 9 -27.68 9 -27 9 C-26.690625 8.21625 -26.38125 7.4325 -26.0625 6.625 C-25 4 -25 4 -24 2 C-23.34 2 -22.68 2 -22 2 C-22 1.34 -22 0.68 -22 0 C-15.07923352 -3.69107546 -7.11740251 -2.47561826 0 0 Z " fill="#F7F7F7" transform="translate(335,78)"/>
<path d="M0 0 C5.61 0 11.22 0 17 0 C17 11.55 17 23.1 17 35 C18.98 34.505 18.98 34.505 21 34 C22.485 34.495 22.485 34.495 24 35 C23.52491155 36.66280956 23.04975261 38.32559902 22.57421875 39.98828125 C22.02621404 41.90816171 21.48176728 43.82905667 20.9375 45.75 C20.33297339 47.84569226 19.68973752 49.93078744 19 52 C18.90654211 53.69070607 18.86930184 55.38483916 18.8671875 57.078125 C18.86589844 58.07457031 18.86460937 59.07101563 18.86328125 60.09765625 C18.86908203 61.65806641 18.86908203 61.65806641 18.875 63.25 C18.87113281 64.27480469 18.86726562 65.29960938 18.86328125 66.35546875 C18.87013147 71.67808693 19.06695447 76.75717274 20 82 C20.66 82 21.32 82 22 82 C22 83.32 22 84.64 22 86 C22.66 86.33 23.32 86.66 24 87 C23.505 87.45375 23.01 87.9075 22.5 88.375 C20.77390663 89.87635519 20.77390663 89.87635519 21 92 C19.515 91.505 19.515 91.505 18 91 C17.3125 88.9375 17.3125 88.9375 17 87 C16.67 87 16.34 87 16 87 C15.30428121 90.4805507 15.30428121 90.4805507 15 94 C15 95.32 15 96.64 15 98 C10.05 98 5.1 98 0 98 C0 65.66 0 33.32 0 0 Z " fill="#040102" transform="translate(532,51)"/>
<path d="M0 0 C6.27 0 12.54 0 19 0 C19 24.09 19 48.18 19 73 C12.73 73 6.46 73 0 73 C0 48.91 0 24.82 0 0 Z " fill="#FAFAFA" transform="translate(112,77)"/>
<path d="M0 0 C3.40829811 1.3539008 5.04791313 2.87666102 7 6 C7 6.66 7 7.32 7 8 C7.66 8 8.32 8 9 8 C9.9059477 11.09794529 10.12868946 13.87490929 10.1328125 17.09765625 C10.13474609 18.54688477 10.13474609 18.54688477 10.13671875 20.02539062 C10.13285156 21.02763672 10.12898437 22.02988281 10.125 23.0625 C10.13080078 24.57166992 10.13080078 24.57166992 10.13671875 26.11132812 C10.13542969 27.07619141 10.13414062 28.04105469 10.1328125 29.03515625 C10.13168457 29.9156665 10.13055664 30.79617676 10.12939453 31.70336914 C10 34 10 34 9 37 C8.34 37 7.68 37 7 37 C6.814375 37.7425 6.62875 38.485 6.4375 39.25 C4.49620374 42.96378416 1.83023712 44.58196453 -2 46 C-5.82668446 46.31889037 -8.36659292 46.21113569 -12 45 C-12 44.34 -12 43.68 -12 43 C-12.86625 42.7215625 -12.86625 42.7215625 -13.75 42.4375 C-17.80804517 39.84486003 -19.50147318 35.49558046 -21 31 C-21.27643387 27.94245072 -21.27738906 24.88119588 -21.3125 21.8125 C-21.34150391 20.98685547 -21.37050781 20.16121094 -21.40039062 19.31054688 C-21.47417404 12.10815056 -19.48231274 7.10289092 -15 1.5 C-10.22632317 -0.88683841 -5.23805608 -0.61963249 0 0 Z " fill="#F7981E" transform="translate(571,91)"/>
<path d="M0 0 C2.64590014 -0.02684679 5.29153096 -0.04676357 7.9375 -0.0625 C8.69224609 -0.07087891 9.44699219 -0.07925781 10.22460938 -0.08789062 C12.14994313 -0.09652441 14.07535581 -0.05224333 16 0 C17 1 17 1 17.12025452 3.77772522 C17.1169236 5.63970802 17.1169236 5.63970802 17.11352539 7.53930664 C17.11367142 8.22220261 17.11381744 8.90509857 17.1139679 9.60868835 C17.11326876 11.87587614 17.1054764 14.14298274 17.09765625 16.41015625 C17.09579207 17.97814387 17.09436817 19.54613207 17.09336853 21.11412048 C17.08954334 25.24876503 17.07971306 29.38337466 17.06866455 33.51800537 C17.05845044 37.73400398 17.05387091 41.95000822 17.04882812 46.16601562 C17.03809078 54.44402826 17.02049399 62.72200577 17 71 C11.72 71 6.44 71 1 71 C1 67.7 1 64.4 1 61 C-1.64 61.66 -4.28 62.32 -7 63 C-5.5140084 58.40693504 -3.14985318 55.56430755 0 52 C-1.485 52.495 -1.485 52.495 -3 53 C-3 52.34 -3 51.68 -3 51 C-2.51202438 50.56165329 -2.02404877 50.12330658 -1.52128601 49.67167664 C0.49886873 47.45181432 0.3639524 46.22195431 0.34057617 43.25317383 C0.34023628 41.81201958 0.34023628 41.81201958 0.33988953 40.3417511 C0.32440567 39.30729355 0.30892181 38.272836 0.29296875 37.20703125 C0.28872391 36.14586594 0.28447906 35.08470062 0.28010559 33.99137878 C0.26329706 30.59816235 0.22564019 27.20553728 0.1875 23.8125 C0.172456 21.51368044 0.15876711 19.21485159 0.14648438 16.91601562 C0.11338645 11.27714158 0.0631653 5.63861303 0 0 Z " fill="#030102" transform="translate(499,79)"/>
<path d="M0 0 C31.7463708 -0.09124181 63.49270432 -0.16203423 95.2391756 -0.20426132 C98.98676181 -0.20926417 102.73434777 -0.21444146 106.48193359 -0.21972656 C107.22801342 -0.2207758 107.97409325 -0.22182505 108.74278156 -0.22290608 C120.82470653 -0.2403134 132.9065554 -0.27185287 144.98843522 -0.30861118 C157.38469548 -0.34601156 169.78091587 -0.36823393 182.17723024 -0.37635398 C189.82703439 -0.38184365 197.47662346 -0.39918486 205.12636141 -0.43166587 C210.99125912 -0.45530053 216.8560463 -0.45782211 222.72099304 -0.45243073 C225.12764689 -0.45353282 227.53430875 -0.4615112 229.94091415 -0.4768219 C233.22341284 -0.49668384 236.50498661 -0.49195228 239.7875061 -0.48101807 C241.22039614 -0.49849512 241.22039614 -0.49849512 242.68223345 -0.51632524 C248.28153591 -0.46581077 251.60169308 0.1841017 256 4 C258.32536092 7.48804138 258.25473346 8.85616801 258.26742554 12.977005 C258.28022049 14.85074799 258.28022049 14.85074799 258.29327393 16.76234436 C258.29257488 18.1492616 258.2916518 19.53617874 258.29052734 20.9230957 C258.29651086 22.38176824 258.303316 23.8404376 258.31088257 25.29910278 C258.32856981 29.26409447 258.33323914 33.22899986 258.33451414 37.19402719 C258.33641255 40.50407868 258.34376959 43.81411004 258.35085833 47.12415379 C258.36715094 54.93491171 258.37202657 62.74562352 258.37060547 70.55639648 C258.36940441 78.61178766 258.3904969 86.66691073 258.4220928 94.72223407 C258.44825426 101.6386921 258.45897279 108.55506259 258.45769465 115.47156972 C258.45718489 119.60218326 258.46287537 123.7325587 258.48405075 127.86312294 C258.50343062 131.74970452 258.50355966 135.63582088 258.48901749 139.52241898 C258.48692781 140.94702141 258.49163989 142.37165293 258.5037384 143.79620552 C258.60823573 156.95525853 258.60823573 156.95525853 254 162 C253.34 162.99 252.68 163.98 252 165 C250.13577163 165.37259549 250.13577163 165.37259549 247.81832695 165.36914349 C246.49563028 165.3781032 246.49563028 165.3781032 245.14621246 165.38724393 C244.17151917 165.3785054 243.19682588 165.36976688 242.19259644 165.36076355 C241.16183239 165.36332682 240.13106835 165.3658901 239.06906903 165.36853105 C235.59260238 165.37349811 232.11656379 165.35692772 228.64013672 165.34057617 C226.15711477 165.33973053 223.67409207 165.3402038 221.19107056 165.34190369 C215.8337128 165.34258828 210.47648996 165.33404343 205.11916733 165.31719017 C197.37334238 165.29283889 189.62757046 165.28499888 181.88171138 165.2812262 C169.31547941 165.27465561 156.74930576 165.25467804 144.18310547 165.22631836 C131.97412407 165.19879346 119.76515849 165.17755222 107.55615234 165.16479492 C106.80395491 165.16400675 106.05175747 165.16321858 105.27676617 165.16240653 C101.50332158 165.1584915 97.72987688 165.15470035 93.9564321 165.15097082 C62.63757899 165.11985602 31.31879834 165.06678121 0 165 C1.485 164.01 1.485 164.01 3 163 C1.68 162.34 0.36 161.68 -1 161 C0.29082143 161.00276538 1.58164286 161.00553076 2.91158009 161.00837994 C33.53256009 161.07331166 64.15352156 161.12280056 94.77455385 161.15319599 C98.54102756 161.15694824 102.30750112 161.1608312 106.07397461 161.16479492 C107.19876067 161.16597532 107.19876067 161.16597532 108.34626969 161.16717956 C120.49810202 161.1802441 132.6498919 161.20390369 144.80169902 161.23145839 C157.26461762 161.25948348 169.72751395 161.27617011 182.19046277 161.28226548 C189.88476289 161.28638796 197.57894305 161.29942225 205.27320626 161.3237494 C211.16678727 161.34143745 217.06030625 161.34337296 222.95391464 161.33932304 C225.37633568 161.34015143 227.79876108 161.346159 230.22115517 161.35761642 C233.51770888 161.37244948 236.81374107 161.36898711 240.11030579 161.36076355 C241.07819528 161.36950207 242.04608478 161.3782406 243.04330426 161.38724393 C243.9236097 161.38127078 244.80391513 161.37529764 245.71089649 161.36914349 C246.85290539 161.37085223 246.85290539 161.37085223 248.01798517 161.37259549 C250.51674922 160.90285722 251.31322602 159.83594049 253 158 C253.66 158 254.32 158 255 158 C255.33 108.83 255.66 59.66 256 9 C255.34 9 254.68 9 254 9 C253.67 7.35 253.34 5.7 253 4 C252.34 4 251.68 4 251 4 C251 3.34 251 2.68 251 2 C126.755 1.505 126.755 1.505 0 1 C0 0.67 0 0.34 0 0 Z " fill="#B0763C" transform="translate(359,18)"/>
<path d="M0 0 C4.73324406 -0.09210637 9.46334929 -0.17165193 14.19677734 -0.21972656 C15.80495774 -0.23977627 17.41306583 -0.26702364 19.02099609 -0.30175781 C21.3397002 -0.35057264 23.65743625 -0.37303428 25.9765625 -0.390625 C27.04567368 -0.42159271 27.04567368 -0.42159271 28.13638306 -0.45318604 C33.2404061 -0.45545291 36.08634051 0.7732158 40 4 C42.30191252 7.45286878 42.44535056 9.2136562 42.625 13.3125 C42.69976562 14.42238281 42.77453125 15.53226563 42.8515625 16.67578125 C41.77329718 20.88497294 40.43046622 22.46914354 36.85693359 24.87280273 C30.46354416 27.39530137 23.26121753 26.59647375 16.5 26.375 C14.89848764 26.34486227 13.29692065 26.31749317 11.6953125 26.29296875 C7.7944121 26.23239576 3.901178 26.11499105 0 26 C0 17.42 0 8.84 0 0 Z " fill="#030303" transform="translate(37,107)"/>
<path d="M0 0 C83.16 0 166.32 0 252 0 C252 0.33 252 0.66 252 1 C170.16 1 88.32 1 4 1 C3.67 2.65 3.34 4.3 3 6 C1.68 6.33 0.36 6.66 -1 7 C-1.33 56.5 -1.66 106 -2 157 C-0.68 157.66 0.64 158.32 2 159 C2 159.66 2 160.32 2 161 C126.245 161.495 126.245 161.495 253 162 C253 162.33 253 162.66 253 163 C221.2365982 163.06841891 189.47321733 163.12151926 157.70975908 163.15319599 C153.96088418 163.15694817 150.21200944 163.16083113 146.46313477 163.16479492 C145.71679262 163.16558185 144.97045048 163.16636878 144.20149191 163.16717956 C132.11244257 163.18023804 120.02343596 163.20389431 107.93441198 163.23145839 C95.53250441 163.2595003 83.13061924 163.27617368 70.72868127 163.28226548 C63.07430889 163.28638446 55.42005732 163.29939985 47.76572212 163.3237494 C41.89910295 163.34146275 36.03254599 163.34336869 30.16589928 163.33932304 C27.75721873 163.34015021 25.34853373 163.34614188 22.93988037 163.35761642 C19.6571634 163.37249137 16.37496784 163.36897157 13.09223938 163.36076355 C12.13406651 163.36950207 11.17589365 163.3782406 10.18868524 163.38724393 C5.32746566 163.35427772 1.89532477 163.25213915 -2 160 C-4.33409236 156.49886146 -4.25112219 155.11696853 -4.25396729 150.978302 C-4.25960693 149.7192807 -4.26524658 148.4602594 -4.27105713 147.16308594 C-4.26716835 145.76513615 -4.26307201 144.36718692 -4.25878906 142.96923828 C-4.26149873 141.49909288 -4.26505952 140.02894884 -4.26940918 138.55880737 C-4.27853999 134.56287522 -4.27498567 130.56704615 -4.26865101 126.57111216 C-4.26359269 122.39073817 -4.26828217 118.2103731 -4.27142334 114.02999878 C-4.27506428 107.00712498 -4.27026138 99.9842932 -4.26074219 92.96142578 C-4.24986585 84.84360827 -4.25337672 76.72589128 -4.264395 68.60807621 C-4.27347434 61.63983364 -4.27474973 54.67162132 -4.26951766 47.70337474 C-4.26640043 43.54101405 -4.26598167 39.37870058 -4.27259064 35.21634293 C-4.27837257 31.3011391 -4.27435169 27.38606465 -4.26280212 23.47087479 C-4.26015971 22.03457351 -4.2609135 20.59826134 -4.26532745 19.16196442 C-4.27080078 17.19986869 -4.26271703 15.23774914 -4.25396729 13.27566528 C-4.25321323 12.17801912 -4.25245918 11.08037296 -4.25168228 9.9494648 C-3.99400972 6.92979986 -3.27586731 4.73261062 -2 2 C-1.34 2 -0.68 2 0 2 C0 1.34 0 0.68 0 0 Z " fill="#E6A55F" transform="translate(356,19)"/>
<path d="M0 0 C4.18118657 -0.04603141 8.36148611 -0.08581936 12.54272461 -0.10986328 C13.96365343 -0.11989146 15.38456178 -0.13351741 16.80541992 -0.15087891 C18.85340444 -0.17526821 20.90111498 -0.1865149 22.94921875 -0.1953125 C24.17987061 -0.20578613 25.41052246 -0.21625977 26.6784668 -0.22705078 C29.90285303 -0.0066407 32.10634881 0.61200798 35 2 C35 2.66 35 3.32 35 4 C35.66 4 36.32 4 37 4 C37.89214652 6.67643957 38.13540211 8.25384378 38.125 11 C38.12886719 12.0209375 38.12886719 12.0209375 38.1328125 13.0625 C37.94948472 15.73692875 37.36218807 17.57195956 35.625 19.625 C32.10903012 22.60005144 28.3113668 22.1155566 23.92578125 22.09765625 C22.90003242 22.09553383 22.90003242 22.09553383 21.8535614 22.09336853 C19.67316278 22.08777876 17.49286749 22.07522822 15.3125 22.0625 C13.83268378 22.05748367 12.35286594 22.052921 10.87304688 22.04882812 C7.24862624 22.0386643 3.62442856 22.0190871 0 22 C0 14.74 0 7.48 0 0 Z " fill="#030303" transform="translate(37,67)"/>
<path d="M0 0 C0.8713476 -0.00199105 1.74269519 -0.0039821 2.64044726 -0.00603348 C3.6034677 -0.00312064 4.56648814 -0.0002078 5.55869102 0.00279331 C6.57720441 0.00193889 7.5957178 0.00108446 8.64509523 0.00020415 C12.07996492 -0.00145142 15.51478647 0.00407199 18.94965172 0.00952244 C21.40311749 0.00980432 23.85658334 0.00964656 26.31004906 0.00907993 C31.60351373 0.00885174 36.89696324 0.01169996 42.19042397 0.01731777 C49.84393605 0.02543496 57.49744218 0.02804822 65.15095811 0.02930576 C77.56742055 0.03149594 89.98387643 0.03815509 102.40033531 0.04760838 C114.46381154 0.05678339 126.52728599 0.06386379 138.590765 0.06811619 C139.70561968 0.06851027 139.70561968 0.06851027 140.84299667 0.06891232 C144.57148913 0.07021733 148.29998161 0.07148104 152.02847409 0.07272422 C182.97404719 0.08309576 213.91961213 0.10078732 244.86517906 0.12304783 C245.85517906 2.10304783 245.85517906 2.10304783 246.86517906 4.12304783 C162.71517906 4.12304783 78.56517906 4.12304783 -8.13482094 4.12304783 C-7.47482094 3.79304783 -6.81482094 3.46304783 -6.13482094 3.12304783 C-6.13482094 2.46304783 -6.13482094 1.80304783 -6.13482094 1.12304783 C-3.83559335 -0.02656596 -2.55645228 -0.00128465 0 0 Z " fill="#170401" transform="translate(364.13482093811035,14.876952171325684)"/>
<path d="M0 0 C0.94101562 0.00322266 1.88203125 0.00644531 2.8515625 0.00976562 C3.83640625 0.01814453 4.82125 0.02652344 5.8359375 0.03515625 C6.82851563 0.03966797 7.82109375 0.04417969 8.84375 0.04882812 C11.2995391 0.0606348 13.75520854 0.07710225 16.2109375 0.09765625 C17.22179178 3.44152023 17.32637213 6.47246805 17.30859375 9.95703125 C17.30537109 11.07207031 17.30214844 12.18710937 17.29882812 13.3359375 C17.29044922 14.49480469 17.28207031 15.65367188 17.2734375 16.84765625 C17.26892578 18.02199219 17.26441406 19.19632813 17.25976562 20.40625 C17.24798844 23.30343697 17.23154076 26.20052079 17.2109375 29.09765625 C21.47983523 30.19261851 23.34860917 29.7286155 27.34570312 27.8359375 C34.58911757 24.96891063 44.56930432 26.35075952 51.5859375 29.28515625 C54.80606146 30.81739046 55.93711965 31.52927677 57.5 34.7734375 C57.73460937 35.54042969 57.96921875 36.30742188 58.2109375 37.09765625 C58.8709375 37.09765625 59.5309375 37.09765625 60.2109375 37.09765625 C63.90668387 43.74317943 63.59776013 49.99776719 63.50390625 57.46875 C63.49966141 58.74621597 63.49541656 60.02368195 63.49104309 61.33985901 C63.477142 64.71513922 63.450249 68.08979677 63.41693115 71.46490479 C63.38609071 74.91730404 63.3725081 78.36976795 63.35742188 81.82226562 C63.32441075 88.58089951 63.27425411 95.33924198 63.2109375 102.09765625 C62.8809375 102.09765625 62.5509375 102.09765625 62.2109375 102.09765625 C62.20285065 101.50820724 62.19476379 100.91875824 62.18643188 100.31144714 C62.09981178 94.12970832 62.00028934 87.94826922 61.89355469 81.7668457 C61.85546999 79.46546496 61.82058288 77.16402884 61.7890625 74.86254883 C61.74296343 71.538374 61.68504625 68.21457376 61.625 64.890625 C61.61344879 63.87558395 61.60189758 62.86054291 61.58999634 61.81474304 C61.40033316 52.45852273 61.05289505 43.69220106 55.2109375 36.09765625 C55.2109375 35.43765625 55.2109375 34.77765625 55.2109375 34.09765625 C46.02332249 30.31452066 36.19111973 27.56648836 26.41015625 31.11328125 C24.22877408 32.33045584 22.23792115 33.6410182 20.2109375 35.09765625 C18.5609375 36.08765625 16.9109375 37.07765625 15.2109375 38.09765625 C15.2109375 26.54765625 15.2109375 14.99765625 15.2109375 3.09765625 C8.6109375 3.09765625 2.0109375 3.09765625 -4.7890625 3.09765625 C-4.7890625 36.42765625 -4.7890625 69.75765625 -4.7890625 104.09765625 C-5.4490625 103.76765625 -6.1090625 103.43765625 -6.7890625 103.09765625 C-6.7890625 69.43765625 -6.7890625 35.77765625 -6.7890625 1.09765625 C-4.33631109 -0.12871945 -2.7384844 -0.01649689 0 0 Z " fill="#DF9E51" transform="translate(375.7890625,46.90234375)"/>
<path d="M0 0 C1.51921177 1.26061726 1.51921177 1.26061726 3 3 C2.83216284 5.0912868 2.64044162 7.18319648 2.33376884 9.25867271 C1.66926531 14.716407 1.88888302 20.22800521 1.91821289 25.71801758 C1.92177563 27.0822946 1.92485979 28.44657294 1.92750549 29.81085205 C1.93401843 32.73109839 1.94355215 35.65131324 1.95540047 38.57154274 C1.97379058 43.18983401 1.98331682 47.80811795 1.99131775 52.42643738 C2.01539997 65.5527983 2.0514467 78.67911297 2.09594727 91.80541992 C2.1204917 99.06830679 2.13785347 106.331176 2.14750665 113.59409827 C2.15404543 118.18511949 2.16959321 122.77599422 2.19182408 127.36696494 C2.20354909 130.21878418 2.2069211 133.07056778 2.20792198 135.92240906 C2.21109456 137.87535331 2.22427214 139.82827326 2.23773193 141.78117371 C2.23642776 142.94323334 2.2351236 144.10529297 2.23377991 145.30256653 C2.23692231 146.31222379 2.24006472 147.32188105 2.24330235 148.36213398 C1.99464857 151.05801984 1.38090581 152.69625397 0 155 C-0.99 155 -1.98 155 -3 155 C-2.83812447 154.46631113 -2.67624893 153.93262226 -2.50946808 153.382761 C-1.89256878 150.49754864 -1.86243706 147.82793582 -1.84851074 144.87582397 C-1.84016708 143.61950668 -1.83182343 142.36318939 -1.82322693 141.06880188 C-1.8189178 139.67916895 -1.81469398 138.28953576 -1.81054688 136.89990234 C-1.80260247 135.43459333 -1.79421436 133.96928667 -1.78541565 132.50398254 C-1.76737295 129.3506679 -1.75235246 126.19735838 -1.73963928 123.04401779 C-1.71941337 118.0611819 -1.69176321 113.07840427 -1.66296387 108.09561157 C-1.59778256 96.62183974 -1.54230394 85.14802481 -1.48697662 73.67420197 C-1.43615621 63.15324535 -1.38330536 52.63230996 -1.32245111 42.11140597 C-1.29406304 37.15445023 -1.27048173 32.19750152 -1.25052643 27.24050498 C-1.23716575 24.16260229 -1.21975246 21.08473237 -1.20121574 18.00685692 C-1.1934424 16.57575112 -1.18738042 15.1446349 -1.18312263 13.71351433 C-1.17709957 11.76572657 -1.16448333 9.81796247 -1.15148926 7.87020874 C-1.14633553 6.77847036 -1.14118179 5.68673199 -1.13587189 4.56191063 C-1 2 -1 2 0 0 Z " fill="#190101" transform="translate(618,23)"/>
<path d="M0 0 C0.33 0 0.66 0 1 0 C1 33.33 1 66.66 1 101 C6.94 101 12.88 101 19 101 C19 97.7 19 94.4 19 91 C22 92 22 92 24.25 94.3125 C29.5316076 99.47407107 33.03358132 101.2492585 40.375 101.4375 C49.48164043 101.12383845 55.28771422 99.05742863 62 93 C62.66 93 63.32 93 64 93 C64.495 91.02 64.495 91.02 65 89 C65.66 89 66.32 89 67 89 C67.495 87.02 67.495 87.02 68 85 C68.6875 86.6875 68.6875 86.6875 69 89 C67.75 91.75 67.75 91.75 66 94 C65.01 94 64.02 94 63 94 C63 95.32 63 96.64 63 98 C60.525 98.495 60.525 98.495 58 99 C58 99.66 58 100.32 58 101 C51.56251935 104.51890979 45.78585359 104.35468741 38.5625 104.1875 C37.44939453 104.17396484 36.33628906 104.16042969 35.18945312 104.14648438 C32.45912788 104.11132997 29.72982256 104.06212106 27 104 C26.731875 103.360625 26.46375 102.72125 26.1875 102.0625 C25.11332248 99.66868314 25.11332248 99.66868314 22 99 C21.67 99.99 21.34 100.98 21 102 C18.66836164 103.16581918 17.27846518 103.12905609 14.68359375 103.1328125 C13.41418945 103.13474609 13.41418945 103.13474609 12.11914062 103.13671875 C11.23419922 103.13285156 10.34925781 103.12898438 9.4375 103.125 C8.54869141 103.12886719 7.65988281 103.13273437 6.74414062 103.13671875 C5.89916016 103.13542969 5.05417969 103.13414062 4.18359375 103.1328125 C3.01654907 103.13112061 3.01654907 103.13112061 1.82592773 103.12939453 C0 103 0 103 -1 102 C-1.10068417 98.86976516 -1.1361416 95.7615508 -1.12939453 92.63085938 C-1.13114685 91.64720901 -1.13289917 90.66355865 -1.13470459 89.65010071 C-1.13912505 86.38129947 -1.13618443 83.11255184 -1.1328125 79.84375 C-1.13348548 77.58312978 -1.13445546 75.32250962 -1.13571167 73.06188965 C-1.13718891 68.31713168 -1.13503326 63.57239251 -1.13037109 58.82763672 C-1.1246738 52.73061376 -1.12795266 46.63363481 -1.13394356 40.53661346 C-1.13754848 35.86651271 -1.1364109 31.19642247 -1.13381577 26.52632141 C-1.1331463 24.27753189 -1.13397558 22.02874143 -1.13629532 19.779953 C-1.13882071 16.64298962 -1.13498285 13.50609859 -1.12939453 10.36914062 C-1.13141876 9.42988235 -1.13344299 8.49062408 -1.13552856 7.52290344 C-1.11426225 1.11426225 -1.11426225 1.11426225 0 0 Z " fill="#E8A34F" transform="translate(529,50)"/>
<path d="M0 0 C6.27 0 12.54 0 19 0 C19 23.76 19 47.52 19 72 C18.67 72 18.34 72 18 72 C17.67 48.9 17.34 25.8 17 2 C11.72 1.67 6.44 1.34 1 1 C1.2475 4.774375 1.2475 4.774375 1.5 8.625 C2.30667464 22.39906408 2.08924175 36.20871739 2 50 C0.68 50.66 -0.64 51.32 -2 52 C-1.01 52.33 -0.02 52.66 1 53 C-0.04539719 55.25162472 -1.11156417 57.14589161 -2.625 59.125 C-4.19712122 60.88127926 -4.19712122 60.88127926 -4 63 C-3.67 62.67 -3.34 62.34 -3 62 C-1.35 62 0.3 62 2 62 C2 65.3 2 68.6 2 72 C1.67 72 1.34 72 1 72 C1 69.03 1 66.06 1 63 C0.34 63 -0.32 63 -1 63 C-1.37898438 63.90878906 -1.37898438 63.90878906 -1.765625 64.8359375 C-4.27599768 69.2370339 -9.35415191 71.23193756 -13.8125 73.3125 C-22.66398495 75.22164381 -30.94039251 74.25012811 -39 70 C-39.66 69.01 -40.32 68.02 -41 67 C-36.85351967 67.47844004 -33.68439654 68.09837598 -30 70 C-22.97419016 71.75645246 -16.68930065 70.50848774 -10 68 C-10.33 66.35 -10.66 64.7 -11 63 C-14.3 62.67 -17.6 62.34 -21 62 C-21 61.01 -21 60.02 -21 59 C-20.10796875 58.87882812 -19.2159375 58.75765625 -18.296875 58.6328125 C-17.12640625 58.46523437 -15.9559375 58.29765625 -14.75 58.125 C-13.58984375 57.96257812 -12.4296875 57.80015625 -11.234375 57.6328125 C-7.36455541 56.88248012 -7.36455541 56.88248012 -4 55 C-3.09390008 53.06018382 -3.09390008 53.06018382 -2.75 50.875 C-2.5025 49.59625 -2.255 48.3175 -2 47 C-1.34 47 -0.68 47 0 47 C0 31.49 0 15.98 0 0 Z " fill="#240902" transform="translate(498,78)"/>
<path d="M0 0 C6.46341868 -0.3511314 11.30977257 -0.25155853 17 3 C21.20646413 7.48689507 21 10.68454503 21 17 C11.43 17 1.86 17 -8 17 C-6.84545455 6.60909091 -6.84545455 6.60909091 -2 2 C-1.34 2 -0.68 2 0 2 C0 1.34 0 0.68 0 0 Z " fill="#121212" transform="translate(239,91)"/>
<path d="M0 0 C0.89267578 0.00322266 1.78535156 0.00644531 2.70507812 0.00976562 C4.09823242 0.02233398 4.09823242 0.02233398 5.51953125 0.03515625 C6.45990234 0.03966797 7.40027344 0.04417969 8.36914062 0.04882812 C10.69016837 0.06060999 13.01106769 0.07706067 15.33203125 0.09765625 C15.34233871 0.66649033 15.35264618 1.2353244 15.36326599 1.82139587 C15.4719772 7.77564501 15.58651694 13.72976235 15.7043457 19.68383789 C15.74748877 21.90190862 15.7891771 24.12000817 15.8293457 26.33813477 C15.88755141 29.53801127 15.95109736 32.73774547 16.015625 35.9375 C16.03233749 36.91911606 16.04904999 37.90073212 16.06626892 38.91209412 C16.18907108 44.70146714 16.60637849 50.35182923 17.33203125 56.09765625 C17.99203125 56.09765625 18.65203125 56.09765625 19.33203125 56.09765625 C19.33203125 56.75765625 19.33203125 57.41765625 19.33203125 58.09765625 C26.38854377 58.24740864 26.38854377 58.24740864 33.33203125 57.09765625 C33.33203125 56.43765625 33.33203125 55.77765625 33.33203125 55.09765625 C33.99203125 55.09765625 34.65203125 55.09765625 35.33203125 55.09765625 C35.33203125 54.10765625 35.33203125 53.11765625 35.33203125 52.09765625 C35.99203125 52.09765625 36.65203125 52.09765625 37.33203125 52.09765625 C37.33203125 49.45765625 37.33203125 46.81765625 37.33203125 44.09765625 C37.66203125 44.09765625 37.99203125 44.09765625 38.33203125 44.09765625 C38.66203125 30.23765625 38.99203125 16.37765625 39.33203125 2.09765625 C39.66203125 2.09765625 39.99203125 2.09765625 40.33203125 2.09765625 C40.33203125 17.60765625 40.33203125 33.11765625 40.33203125 49.09765625 C39.67203125 49.09765625 39.01203125 49.09765625 38.33203125 49.09765625 C38.23921875 50.42796875 38.23921875 50.42796875 38.14453125 51.78515625 C37.13749389 55.89077011 35.54323616 57.42165216 32.33203125 60.09765625 C27.98107345 61.54797552 23.87856744 61.59879203 19.33203125 61.09765625 C16.33203125 59.59765625 16.33203125 59.59765625 14.33203125 57.09765625 C12.2677252 50.67013729 12.06648338 44.74924614 12.13671875 38.03515625 C12.13954865 37.00326172 12.14237854 35.97136719 12.14529419 34.90820312 C12.15641873 31.63789893 12.18150899 28.36787657 12.20703125 25.09765625 C12.21707103 22.86979564 12.22619513 20.64193071 12.234375 18.4140625 C12.25633275 12.97515313 12.29080903 7.53645235 12.33203125 2.09765625 C6.06203125 2.09765625 -0.20796875 2.09765625 -6.66796875 2.09765625 C-6.66796875 19.25765625 -6.66796875 36.41765625 -6.66796875 54.09765625 C-6.99796875 54.09765625 -7.32796875 54.09765625 -7.66796875 54.09765625 C-7.66796875 36.60765625 -7.66796875 19.11765625 -7.66796875 1.09765625 C-4.78531726 0.13677242 -2.99134604 -0.01905316 0 0 Z " fill="#C48A48" transform="translate(457.66796875,75.90234375)"/>
<path d="M0 0 C4.94050225 4.2667974 5.48147777 9.78916306 6 16 C6.13706519 19.8950935 6.14033098 23.78638413 6.1328125 27.68359375 C6.13424759 29.32776024 6.13424759 29.32776024 6.13571167 31.00514221 C6.136389 33.30705829 6.13456607 35.60897632 6.13037109 37.91088867 C6.12498035 41.45040092 6.13034964 44.98978835 6.13671875 48.52929688 C6.1360586 50.76822945 6.13477874 53.00716194 6.1328125 55.24609375 C6.13483673 56.30952499 6.13686096 57.37295624 6.13894653 58.46861267 C6.13579437 59.4437532 6.13264221 60.41889374 6.12939453 61.42358398 C6.12859894 62.28547836 6.12780334 63.14737274 6.12698364 64.03538513 C6 66 6 66 5 67 C-1.27 67 -7.54 67 -14 67 C-14.33 48.85 -14.66 30.7 -15 12 C-12 14 -12 14 -11.31860352 15.99291992 C-10.8547194 20.37120392 -10.87810004 24.71367385 -10.90234375 29.11328125 C-10.9037587 30.08283249 -10.90517365 31.05238373 -10.90663147 32.05131531 C-10.91221487 35.13840867 -10.92476436 38.22542867 -10.9375 41.3125 C-10.94251714 43.40950416 -10.94707968 45.50650946 -10.95117188 47.60351562 C-10.96217888 52.73570521 -10.97943212 57.86784018 -11 63 C-6.71 63.66 -2.42 64.32 2 65 C2.14315788 57.70427864 2.28555297 50.40854293 2.42724609 43.11279297 C2.47553969 40.6316691 2.52404047 38.15054926 2.57275391 35.66943359 C2.64279993 32.09994532 2.712097 28.53044317 2.78125 24.9609375 C2.80312378 23.85446869 2.82499756 22.74799988 2.84753418 21.60800171 C2.94122983 16.7379488 3.02956751 11.87124805 3 7 C2.01 6.67 1.02 6.34 0 6 C0 4.02 0 2.04 0 0 Z " fill="#301306" transform="translate(432,84)"/>
<path d="M0 0 C6.6 0 13.2 0 20 0 C20.33 11.22 20.66 22.44 21 34 C23.31 32.02 25.62 30.04 28 28 C31.80429585 26.32610983 34.8589095 25.75640644 39 26 C36.53241292 28.18286549 35.19648241 28.97249246 31.875 29.4375 C30.92625 29.623125 29.9775 29.80875 29 30 C28.29848848 31.3153341 27.63474075 32.65117592 27 34 C24.0625 35.8125 24.0625 35.8125 21 37 C19.515 36.505 19.515 36.505 18 36 C18.33 24.45 18.66 12.9 19 1 C13.39 1 7.78 1 2 1 C2 33.34 2 65.68 2 99 C6.95 99 11.9 99 17 99 C17 97.68 17 96.36 17 95 C16.34 95 15.68 95 15 95 C15.62759865 92.07120629 16.58622659 89.63904371 18 87 C19.485 87.99 19.485 87.99 21 89 C20.67 89.66 20.34 90.32 20 91 C19.34 91 18.68 91 18 91 C18 94.3 18 97.6 18 101 C12.06 101 6.12 101 0 101 C0 67.67 0 34.34 0 0 Z " fill="#502710" transform="translate(530,50)"/>
<path d="M0 0 C6.93 0 13.86 0 21 0 C21.94367892 3.77471566 22.11521178 6.65340835 22.09765625 10.515625 C22.09443359 11.76601563 22.09121094 13.01640625 22.08789062 14.3046875 C22.07951172 15.60664062 22.07113281 16.90859375 22.0625 18.25 C22.05798828 19.56742188 22.05347656 20.88484375 22.04882812 22.2421875 C22.03704316 25.49483741 22.02059011 28.74739584 22 32 C22.60875977 31.64413818 23.21751953 31.28827637 23.84472656 30.92163086 C30.04334982 27.52689194 34.72357431 26.27210477 41.75 26.5625 C42.96623047 26.57120117 42.96623047 26.57120117 44.20703125 26.58007812 C48.83001228 26.67404115 52.6574247 27.25596572 57 29 C57 29.66 57 30.32 57 31 C57.66 31 58.32 31 59 31 C59 31.66 59 32.32 59 33 C60.1446875 33.0928125 60.1446875 33.0928125 61.3125 33.1875 C64 34 64 34 65.8125 36.4375 C67 39 67 39 67 41 C67.66 41 68.32 41 69 41 C73.12694718 53.38084154 73.12694718 53.38084154 73.1328125 58.078125 C73.13410156 59.07457031 73.13539063 60.07101563 73.13671875 61.09765625 C73.13285156 62.13792969 73.12898437 63.17820313 73.125 64.25 C73.12886719 65.27480469 73.13273438 66.29960938 73.13671875 67.35546875 C73.1181246 81.80312567 73.1181246 81.80312567 70 87 C69.34 87 68.68 87 68 87 C68.14002441 86.41081787 68.28004883 85.82163574 68.42431641 85.21459961 C71.61594249 70.76762373 72.64424159 53.64189113 64.59765625 40.75390625 C60.08155629 34.73612024 54.18675744 31.87218051 47 30 C38.94929733 28.93847211 31.93668915 29.61037639 25 34 C23.35 35.32 21.7 36.64 20 38 C20 26.45 20 14.9 20 3 C13.4 3 6.8 3 0 3 C0 2.01 0 1.02 0 0 Z " fill="#DE9A4C" transform="translate(530,47)"/>
<path d="M0 0 C6.27 0 12.54 0 19 0 C19 5.94 19 11.88 19 18 C12.73 18 6.46 18 0 18 C0 12.06 0 6.12 0 0 Z " fill="#F5F5F5" transform="translate(112,50)"/>
<path d="M0 0 C0.33 0.66 0.66 1.32 1 2 C1.66 2 2.32 2 3 2 C3.02333511 21.13187574 3.04098219 40.2637486 3.05181217 59.3956356 C3.05697382 68.27841034 3.06401404 77.16117624 3.07543945 86.04394531 C3.08539027 93.78395647 3.09185438 101.52396123 3.09408849 109.2639786 C3.09539492 113.36424019 3.09847651 117.46448349 3.10573006 121.56473923 C3.11249653 125.42075714 3.11461567 129.27674916 3.11310768 133.13277245 C3.11338373 134.55098422 3.11538514 135.96919683 3.11920547 137.38740349 C3.12415242 139.31786352 3.12239527 141.24833731 3.12025452 143.17880249 C3.12117631 144.26098745 3.1220981 145.34317242 3.12304783 146.45815086 C3 149 3 149 2 151 C1.34 151 0.68 151 0 151 C-0.33 151.99 -0.66 152.98 -1 154 C-1.66 153.67 -2.32 153.34 -3 153 C-2.26866112 151.95492893 -2.26866112 151.95492893 -1.52254772 150.88874531 C0.23773162 147.54894937 0.37031742 145.53474706 0.36076355 141.78007507 C0.36488754 140.52790695 0.36901154 139.27573883 0.3732605 137.98562622 C0.36264448 136.60589382 0.35174008 135.22616362 0.34057617 133.84643555 C0.33972958 132.38758868 0.34020567 130.92874053 0.34190369 129.46989441 C0.34276381 125.51565883 0.32513533 121.56169671 0.30418181 117.60752463 C0.28541791 113.47288639 0.2836648 109.33824176 0.28010559 105.2035675 C0.27078428 97.37674484 0.24616935 89.550048 0.21605712 81.72328073 C0.18251579 72.81162295 0.16602777 63.89995914 0.15097082 54.98825395 C0.11961986 36.65876465 0.06685769 18.32939245 0 0 Z " fill="#EA9A33" transform="translate(612,25)"/>
<path d="M0 0 C6.6 0 13.2 0 20 0 C20 24.42 20 48.84 20 74 C17.76352369 75.11823815 16.35108471 75.19396061 13.8671875 75.31640625 C13.06152344 75.35830078 12.25585938 75.40019531 11.42578125 75.44335938 C10.58402344 75.48267578 9.74226563 75.52199219 8.875 75.5625 C8.02550781 75.60568359 7.17601562 75.64886719 6.30078125 75.69335938 C4.20071777 75.79954236 2.10038052 75.90028497 0 76 C-0.33 74.68 -0.66 73.36 -1 72 C-2.32 72 -3.64 72 -5 72 C-5.495 73.485 -5.495 73.485 -6 75 C-12.10456786 78.03977457 -19.17088432 78.34769935 -25.875 78.5 C-26.60009766 78.53053467 -27.32519531 78.56106934 -28.07226562 78.5925293 C-32.19000358 78.59491446 -33.81425716 78.15631345 -37.0078125 75.46875 C-37.66523438 74.6540625 -38.32265625 73.839375 -39 73 C-38.01 72.01 -38.01 72.01 -37 71 C-36.47792969 71.2165625 -35.95585937 71.433125 -35.41796875 71.65625 C-26.24783894 75.12516075 -18.16195362 75.18071688 -9.16796875 71.1484375 C-5.72710193 69.32570805 -2.76879178 67.53758356 -1 64 C-0.34 64 0.32 64 1 64 C1 66.97 1 69.94 1 73 C6.94 73 12.88 73 19 73 C19 49.24 19 25.48 19 1 C12.73 1 6.46 1 0 1 C0 0.67 0 0.34 0 0 Z " fill="#B77D3D" transform="translate(498,77)"/>
<path d="M0 0 C0.66 0 1.32 0 2 0 C5.73673273 10.05688562 5.66342434 20.36743013 3.1796875 30.70703125 C2 33 2 33 -0.40625 34.2578125 C-1.2621875 34.50273437 -2.118125 34.74765625 -3 35 C-4.11375 35.350625 -5.2275 35.70125 -6.375 36.0625 C-10 37 -10 37 -13.875 37.5 C-15.421875 37.7475 -15.421875 37.7475 -17 38 C-17.33 38.66 -17.66 39.32 -18 40 C-20.0625 41.125 -20.0625 41.125 -22 42 C-21.34 42.33 -20.68 42.66 -20 43 C-20 43.66 -20 44.32 -20 45 C-19.0409375 45.1546875 -19.0409375 45.1546875 -18.0625 45.3125 C-17.0415625 45.6528125 -17.0415625 45.6528125 -16 46 C-15.67 46.99 -15.34 47.98 -15 49 C-9.78481479 49.1837788 -9.78481479 49.1837788 -4.6875 48.375 C-3.8521875 48.189375 -3.8521875 48.189375 -3 48 C-2.01 48.66 -1.02 49.32 0 50 C-6.44569995 51.88388815 -13.74248314 52.3385895 -20.00390625 49.765625 C-23.86973791 47.49226839 -26.49104077 45.76343884 -29 42 C-28.34 42 -27.68 42 -27 42 C-27.495 40.515 -27.495 40.515 -28 39 C-27.01 38.34 -26.02 37.68 -25 37 C-25.33 35.35 -25.66 33.7 -26 32 C-26.66 32 -27.32 32 -28 32 C-30.27678571 25.03571429 -30.27678571 25.03571429 -29 21 C-28.75765625 21.61488281 -28.5153125 22.22976562 -28.265625 22.86328125 C-25.83222932 28.85983374 -25.83222932 28.85983374 -21 33 C-21 33.66 -21 34.32 -21 35 C-14.07604572 35.50153391 -9.64023751 35.23017813 -4 31 C-2.5337314 28.91548164 -2.5337314 28.91548164 -2 27 C-1.34 27 -0.68 27 0 27 C0 18.09 0 9.18 0 0 Z " fill="#200C06" transform="translate(580,101)"/>
<path d="M0 0 C3.01498082 2.34498508 4.52835472 5.15965759 5.04826355 8.92585754 C5.04160172 9.85629379 5.03493988 10.78673004 5.02807617 11.74536133 C5.02784958 12.80608353 5.02762299 13.86680573 5.02738953 14.95967102 C5.01190567 16.0931749 4.99642181 17.22667877 4.98046875 18.39453125 C4.97622391 19.56384689 4.97197906 20.73316254 4.96760559 21.93791199 C4.95083285 25.667177 4.91318192 29.39589872 4.875 33.125 C4.85995141 35.65559115 4.84626331 38.18619077 4.83398438 40.71679688 C4.80093383 46.91554949 4.7507477 53.11398592 4.6875 59.3125 C4.0275 58.9825 3.3675 58.6525 2.6875 58.3125 C2.3575 40.4925 2.0275 22.6725 1.6875 4.3125 C0.3675 3.9825 -0.9525 3.6525 -2.3125 3.3125 C-2.9725 2.9825 -3.6325 2.6525 -4.3125 2.3125 C-4.3125 1.6525 -4.3125 0.9925 -4.3125 0.3125 C-5.22 0.6425 -6.1275 0.9725 -7.0625 1.3125 C-10.3125 2.3125 -10.3125 2.3125 -14.3125 2.3125 C-14.3125 2.9725 -14.3125 3.6325 -14.3125 4.3125 C-14.9725 4.3125 -15.6325 4.3125 -16.3125 4.3125 C-16.621875 5.09625 -16.93125 5.88 -17.25 6.6875 C-18.3125 9.3125 -18.3125 9.3125 -19.3125 11.3125 C-19.43072971 12.85392175 -19.48949811 14.40011097 -19.51782227 15.94580078 C-19.53776749 16.90664581 -19.55771271 17.86749084 -19.57826233 18.85745239 C-19.59497482 19.89707123 -19.61168732 20.93669006 -19.62890625 22.0078125 C-19.64968735 23.07039276 -19.67046844 24.13297302 -19.69187927 25.22775269 C-19.75740261 28.63093438 -19.81627273 32.03419489 -19.875 35.4375 C-19.91818257 37.74089366 -19.96179677 40.04427926 -20.00585938 42.34765625 C-20.11308682 48.00252021 -20.21484802 53.65746303 -20.3125 59.3125 C-20.9725 59.3125 -21.6325 59.3125 -22.3125 59.3125 C-22.38869033 52.44408286 -22.44115885 45.5757751 -22.47729492 38.70703125 C-22.49236261 36.37137784 -22.51282049 34.03575263 -22.53881836 31.70019531 C-22.57528958 28.33912181 -22.5922469 24.97842308 -22.60546875 21.6171875 C-22.62095261 20.57634003 -22.63643646 19.53549255 -22.65238953 18.46310425 C-22.65364058 13.04926281 -22.561182 8.89781247 -19.3125 4.3125 C-18.3225 3.9825 -17.3325 3.6525 -16.3125 3.3125 C-16.3125 2.6525 -16.3125 1.9925 -16.3125 1.3125 C-10.85099906 -0.87210037 -5.74754177 -1.70872863 0 0 Z " fill="#DEA154" transform="translate(413.3125,91.6875)"/>
<path d="M0 0 C3.40829811 1.3539008 5.04791313 2.87666102 7 6 C7 6.66 7 7.32 7 8 C7.66 8 8.32 8 9 8 C9.9059477 11.09794529 10.12868946 13.87490929 10.1328125 17.09765625 C10.13474609 18.54688477 10.13474609 18.54688477 10.13671875 20.02539062 C10.13285156 21.02763672 10.12898437 22.02988281 10.125 23.0625 C10.13080078 24.57166992 10.13080078 24.57166992 10.13671875 26.11132812 C10.13542969 27.07619141 10.13414062 28.04105469 10.1328125 29.03515625 C10.13168457 29.9156665 10.13055664 30.79617676 10.12939453 31.70336914 C10 34 10 34 9 37 C8.34 37 7.68 37 7 37 C6.814375 37.7425 6.62875 38.485 6.4375 39.25 C4.49620374 42.96378416 1.83023712 44.58196453 -2 46 C-5.82668446 46.31889037 -8.36659292 46.21113569 -12 45 C-12 44.34 -12 43.68 -12 43 C-12.86625 42.7215625 -12.86625 42.7215625 -13.75 42.4375 C-17.80804517 39.84486003 -19.50147318 35.49558046 -21 31 C-21.27643387 27.94245072 -21.27738906 24.88119588 -21.3125 21.8125 C-21.34150391 20.98685547 -21.37050781 20.16121094 -21.40039062 19.31054688 C-21.47417404 12.10815056 -19.48231274 7.10289092 -15 1.5 C-10.22632317 -0.88683841 -5.23805608 -0.61963249 0 0 Z M-13 3 C-14.00642948 4.32848691 -15.00692179 5.66150329 -16 7 C-16.66 7 -17.32 7 -18 7 C-19.85594182 17.09168367 -21.49838923 26.33679351 -17 36 C-16.01 36.33 -15.02 36.66 -14 37 C-12.875 38.9375 -12.875 38.9375 -12 41 C-11.67 41.66 -11.34 42.32 -11 43 C-6.71343701 44.20023764 -2.89818558 44.249496 1.375 43.0625 C5.34182838 39.94570628 6.57090626 35.63021777 7.36328125 30.77319336 C7.58538263 28.49293604 7.7173707 26.22642739 7.8125 23.9375 C7.86341797 23.17373047 7.91433594 22.40996094 7.96679688 21.62304688 C8.28639163 15.29073725 7.81471866 10.03602582 3.4375 5.125 C2.633125 4.42375 1.82875 3.7225 1 3 C0.67 2.67 0.34 2.34 0 2 C-1.62252492 1.90113647 -3.24947273 1.87028833 -4.875 1.875 C-5.75929688 1.87242188 -6.64359375 1.86984375 -7.5546875 1.8671875 C-10.13906291 1.89951415 -10.13906291 1.89951415 -13 3 Z " fill="#D59750" transform="translate(571,91)"/>
<path d="M0 0 C1 2 1 2 0.18535137 4.58979321 C-2.32081979 7.35382961 -2.76858246 7.38006205 -6.32033825 7.59962177 C-8.20208835 7.61334743 -10.08415834 7.59889724 -11.96562195 7.56330872 C-13.51917498 7.56359157 -13.51917498 7.56359157 -15.10411292 7.56388015 C-18.59166662 7.55838309 -22.07788308 7.5169506 -25.56518555 7.47583008 C-28.0581984 7.46456329 -30.55122205 7.4555008 -33.04425049 7.44848633 C-38.42030323 7.42838021 -43.79591957 7.39287296 -49.17175865 7.34345436 C-56.94428615 7.27203015 -64.71677538 7.22823012 -72.48953388 7.19120713 C-85.09971025 7.13039086 -97.7096358 7.04718331 -110.31958008 6.94995117 C-122.57017648 6.8555377 -134.82077036 6.77163456 -147.0715332 6.7019043 C-147.82645491 6.69760368 -148.58137662 6.69330307 -149.35917475 6.68887214 C-153.14633192 6.66736255 -156.93349021 6.64606 -160.72064912 6.62486041 C-192.14734434 6.44867341 -223.57369284 6.23579948 -255 6 C-255 5.67 -255 5.34 -255 5 C-171.84 5 -88.68 5 -3 5 C-2.34 3.68 -1.68 2.36 -1 1 C-0.67 0.67 -0.34 0.34 0 0 Z " fill="#290A00" transform="translate(614,178)"/>
<path d="M0 0 C0.33 0 0.66 0 1 0 C1.33 11.22 1.66 22.44 2 34 C5.3 31.69 8.6 29.38 12 27 C19.01797759 24.66067414 28.44158747 24.86892891 35.25 27.8125 C37.96627574 29.18643017 39.9759075 30.71977234 42 33 C42 33.33 42 33.66 42 34 C37.28974573 33.54709094 34.664226 32.9313808 31 30 C27.02360234 28.81782772 23.12806998 28.76633566 19 29 C18.34 29.66 17.68 30.32 17 31 C15.865625 31.12375 14.73125 31.2475 13.5625 31.375 C9.94819496 31.64213535 9.94819496 31.64213535 8.0625 34.0625 C7.5365625 35.0215625 7.5365625 35.0215625 7 36 C8.90044495 38.35822826 8.90044495 38.35822826 12.15234375 38.08984375 C14.67328739 37.98838162 17.19412385 37.88422019 19.71484375 37.77734375 C23 38 23 38 24.8984375 39.3359375 C26.3251971 41.4912552 26.65674624 43.4599222 27 46 C26.34 45.67 25.68 45.34 25 45 C25 44.34 25 43.68 25 43 C19.18739218 41.06246406 12.89073573 41.82185285 7 43 C7 43.66 7 44.32 7 45 C5.515 45.495 5.515 45.495 4 46 C4 43.69 4 41.38 4 39 C2.68 38.67 1.36 38.34 0 38 C-1.07491629 33.72566956 -1.04858488 29.66141129 -0.87890625 25.29296875 C-0.85529526 24.56757401 -0.83168427 23.84217926 -0.80735779 23.09480286 C-0.7311668 20.79214705 -0.64695297 18.48986611 -0.5625 16.1875 C-0.50923459 14.62046067 -0.45649454 13.05340339 -0.40429688 11.48632812 C-0.27561258 7.65731752 -0.13973538 3.82862259 0 0 Z " fill="#341A0A" transform="translate(390,50)"/>
<path d="M0 0 C0.33 0 0.66 0 1 0 C1.33 32.67 1.66 65.34 2 99 C7.28 99 12.56 99 18 99 C17.98952637 97.50106201 17.97905273 96.00212402 17.96826172 94.45776367 C17.93211061 88.90603008 17.90911729 83.35430692 17.89013672 77.80249023 C17.88006799 75.39785005 17.86641215 72.99322214 17.84912109 70.58862305 C17.82491126 67.13587416 17.81352568 63.6832869 17.8046875 60.23046875 C17.79436493 59.15226364 17.78404236 58.07405853 17.77340698 56.96318054 C17.77325592 55.96236954 17.77310486 54.96155853 17.77294922 53.93041992 C17.768508 53.04883713 17.76406677 52.16725433 17.75949097 51.25895691 C18 49 18 49 20 46 C21.485 46.495 21.485 46.495 23 47 C22.67657623 47.72052048 22.35315247 48.44104095 22.01992798 49.18339539 C20.99319698 52.01878704 20.72759914 54.06985525 20.68115234 57.06567383 C20.66128265 58.04631302 20.64141296 59.02695221 20.62094116 60.03730774 C20.60361435 61.60632088 20.60361435 61.60632088 20.5859375 63.20703125 C20.56657135 64.28756271 20.5472052 65.36809418 20.5272522 66.48136902 C20.46757897 69.9249996 20.42111959 73.36866383 20.375 76.8125 C20.33680899 79.15040502 20.2977566 81.48829615 20.2578125 83.82617188 C20.16188729 89.55066805 20.07781056 95.2752301 20 101 C13.4 101 6.8 101 0 101 C0 67.67 0 34.34 0 0 Z " fill="#562E0F" transform="translate(371,50)"/>
<path d="M0 0 C0.99 0 1.98 0 3 0 C3.0926133 9.46613979 3.1637206 18.93212403 3.20724869 28.39861774 C3.22813834 32.79414668 3.25648066 37.18936605 3.30175781 41.5847168 C3.34516713 45.8252028 3.36912673 50.06539075 3.37950897 54.30608177 C3.38690925 55.92527142 3.40136017 57.54444445 3.42292023 59.16350746 C3.45189025 61.42878299 3.45595889 63.69282148 3.45410156 65.95825195 C3.46298401 67.24842728 3.47186646 68.5386026 3.48101807 69.86787415 C3 73 3 73 1.09753418 74.91882324 C-1.1997245 76.10294826 -2.54335215 76.35128745 -5.109375 76.29296875 C-5.86347656 76.28330078 -6.61757813 76.27363281 -7.39453125 76.26367188 C-8.17183594 76.23853516 -8.94914062 76.21339844 -9.75 76.1875 C-10.93916016 76.16719727 -10.93916016 76.16719727 -12.15234375 76.14648438 C-14.10185564 76.11125223 -16.05101626 76.05744821 -18 76 C-18 75.67 -18 75.34 -18 75 C-12.06 74.67 -6.12 74.34 0 74 C0 49.58 0 25.16 0 0 Z " fill="#EB9F40" transform="translate(518,77)"/>
<path d="M0 0 C2.64590014 -0.02684679 5.29153096 -0.04676357 7.9375 -0.0625 C8.69224609 -0.07087891 9.44699219 -0.07925781 10.22460938 -0.08789062 C12.14994313 -0.09652441 14.07535581 -0.05224333 16 0 C17 1 17 1 17.12025452 3.77772522 C17.1169236 5.63970802 17.1169236 5.63970802 17.11352539 7.53930664 C17.11367142 8.22220261 17.11381744 8.90509857 17.1139679 9.60868835 C17.11326876 11.87587614 17.1054764 14.14298274 17.09765625 16.41015625 C17.09579207 17.97814387 17.09436817 19.54613207 17.09336853 21.11412048 C17.08954334 25.24876503 17.07971306 29.38337466 17.06866455 33.51800537 C17.05845044 37.73400398 17.05387091 41.95000822 17.04882812 46.16601562 C17.03809078 54.44402826 17.02049399 62.72200577 17 71 C11.72 71 6.44 71 1 71 C1.33 70.01 1.66 69.02 2 68 C2 68.66 2 69.32 2 70 C8.435 69.01 8.435 69.01 15 68 C15.33 46.22 15.66 24.44 16 2 C9.565 2.495 9.565 2.495 3 3 C2.67 14.55 2.34 26.1 2 38 C1.67 38 1.34 38 1 38 C0.20458373 25.31595119 -0.12807946 12.70832863 0 0 Z " fill="#150201" transform="translate(499,79)"/>
<path d="M0 0 C0.6875 1.6875 0.6875 1.6875 1 4 C-0.25 6.75 -0.25 6.75 -2 9 C-2.99 9 -3.98 9 -5 9 C-5 10.32 -5 11.64 -5 13 C-6.65 13.33 -8.3 13.66 -10 14 C-10 14.66 -10 15.32 -10 16 C-16.43748065 19.51890979 -22.21414641 19.35468741 -29.4375 19.1875 C-30.55060547 19.17396484 -31.66371094 19.16042969 -32.81054688 19.14648438 C-35.54087212 19.11132997 -38.27017744 19.06212106 -41 19 C-41.268125 18.360625 -41.53625 17.72125 -41.8125 17.0625 C-42.88667752 14.66868314 -42.88667752 14.66868314 -46 14 C-46.33 14.99 -46.66 15.98 -47 17 C-47.99 16.67 -48.98 16.34 -50 16 C-49.67 12.7 -49.34 9.4 -49 6 C-46 7 -46 7 -43.75 9.3125 C-38.4683924 14.47407107 -34.96641868 16.2492585 -27.625 16.4375 C-18.51835957 16.12383845 -12.71228578 14.05742863 -6 8 C-5.34 8 -4.68 8 -4 8 C-3.67 6.68 -3.34 5.36 -3 4 C-2.34 4 -1.68 4 -1 4 C-0.67 2.68 -0.34 1.36 0 0 Z " fill="#EB9F40" transform="translate(597,135)"/>
<path d="M0 0 C1.33333333 0.66666667 2.66666667 1.33333333 4 2 C3.67 3.32 3.34 4.64 3 6 C1.68 6.33 0.36 6.66 -1 7 C-1.33 55.18 -1.66 103.36 -2 153 C-2.33 153 -2.66 153 -3 153 C-3.02333491 133.60735661 -3.0409821 114.21471605 -3.05181217 94.82206154 C-3.05697387 85.81821855 -3.06401417 76.81438427 -3.07543945 67.81054688 C-3.08539014 59.9650603 -3.09185435 52.11958002 -3.09408849 44.27408731 C-3.09539494 40.11793447 -3.09847667 35.96179968 -3.10573006 31.80565262 C-3.11249633 27.89710514 -3.11461571 23.98858322 -3.11310768 20.08003044 C-3.11338373 18.642468 -3.11538527 17.20490473 -3.11920547 15.76734734 C-3.1241521 13.81061286 -3.12239534 11.8538648 -3.12025452 9.89712524 C-3.12117631 8.80019159 -3.1220981 7.70325794 -3.12304783 6.57308388 C-3 4 -3 4 -2 2 C-1.34 2 -0.68 2 0 2 C0 1.34 0 0.68 0 0 Z " fill="#E29C4E" transform="translate(356,19)"/>
<path d="M0 0 C0.33 0 0.66 0 1 0 C1.33 49.5 1.66 99 2 150 C3.32 150.66 4.64 151.32 6 152 C6 152.66 6 153.32 6 154 C7.32 154.33 8.64 154.66 10 155 C7.25 155.3125 7.25 155.3125 4 155 C1.35048782 152.40781822 0.12059713 150.72473362 -0.49219131 147.04215527 C-0.48850414 145.94061265 -0.48481697 144.83907003 -0.48101807 143.70414734 C-0.48651672 142.43515091 -0.49201538 141.16615448 -0.49768066 139.85870361 C-0.4835259 138.4600792 -0.46898669 137.06145863 -0.45410156 135.6628418 C-0.45297279 134.18429088 -0.45360752 132.70573772 -0.45587158 131.22718811 C-0.45701853 127.21915059 -0.4335127 123.2115926 -0.40557575 119.20366645 C-0.38055872 115.01298442 -0.37821987 110.82229121 -0.37347412 106.63154602 C-0.36104521 98.69842992 -0.32822482 90.7655345 -0.28807616 82.83251554 C-0.24335577 73.79995451 -0.22137075 64.7673829 -0.20129442 55.73473871 C-0.15949206 37.15636739 -0.08914171 18.57820144 0 0 Z " fill="#CC9663" transform="translate(352,26)"/>
<path d="M0 0 C0.33 0 0.66 0 1 0 C1.00808685 0.62481262 1.01617371 1.24962524 1.02450562 1.89337158 C1.11115216 8.44831289 1.21067523 15.00297244 1.31738281 21.55761719 C1.35545826 23.99767288 1.39034683 26.43778061 1.421875 28.87792969 C1.46799442 32.40318291 1.52590798 35.92808438 1.5859375 39.453125 C1.59748871 40.5286261 1.60903992 41.6041272 1.62094116 42.71221924 C1.75946551 49.9639301 2.62127063 56.88082609 4 64 C1 63 1 63 -0.125 60.8125 C-2.19674489 54.15331999 -2.15551751 47.65873621 -2.125 40.75 C-2.12234131 39.66912109 -2.11968262 38.58824219 -2.11694336 37.47460938 C-2.06964263 29.1448914 -1.86285891 20.8242327 -1.5625 12.5 C-1.52334473 11.3665918 -1.48418945 10.23318359 -1.44384766 9.06542969 C-1.40179199 8.02290039 -1.35973633 6.98037109 -1.31640625 5.90625 C-1.27974854 4.98134766 -1.24309082 4.05644531 -1.20532227 3.10351562 C-1 1 -1 1 0 0 Z " fill="#E99E41" transform="translate(449,78)"/>
<path d="M0 0 C0.721875 0.144375 1.44375 0.28875 2.1875 0.4375 C3.5796875 0.7159375 3.5796875 0.7159375 5 1 C6.66666667 1.33333333 8.33333333 1.66666667 10 2 C10 2.66 10 3.32 10 4 C10.66 4 11.32 4 12 4 C12 4.66 12 5.32 12 6 C13.1446875 6.0928125 13.1446875 6.0928125 14.3125 6.1875 C17 7 17 7 18.8125 9.4375 C20 12 20 12 20 14 C20.66 14 21.32 14 22 14 C26.12694718 26.38084154 26.12694718 26.38084154 26.1328125 31.078125 C26.13474609 32.57279297 26.13474609 32.57279297 26.13671875 34.09765625 C26.13285156 35.13792969 26.12898437 36.17820313 26.125 37.25 C26.13080078 38.78720703 26.13080078 38.78720703 26.13671875 40.35546875 C26.1181246 54.80312567 26.1181246 54.80312567 23 60 C22.34 60 21.68 60 21 60 C21.14002441 59.41081787 21.28004883 58.82163574 21.42431641 58.21459961 C24.61594249 43.76762373 25.64424159 26.64189113 17.59765625 13.75390625 C13.03670513 7.67635525 7.03611889 5.40314077 0 3 C0 2.01 0 1.02 0 0 Z " fill="#E4A75C" transform="translate(577,74)"/>
<path d="M0 0 C5.61 0 11.22 0 17 0 C17 11.22 17 22.44 17 34 C15 32 15 32 14.77294922 29.01904297 C14.78342285 27.77268066 14.79389648 26.52631836 14.8046875 25.2421875 C14.8075174 24.57913605 14.81034729 23.91608459 14.81326294 23.23294067 C14.82446565 21.11344417 14.84956949 18.99436896 14.875 16.875 C14.88502972 15.43880818 14.89415559 14.00260975 14.90234375 12.56640625 C14.92270461 9.04397762 14.9618506 5.52246083 15 2 C10.38 2 5.76 2 1 2 C1 33.68 1 65.36 1 98 C0.67 98 0.34 98 0 98 C0 65.66 0 33.32 0 0 Z " fill="#150100" transform="translate(532,51)"/>
<path d="M0 0 C5.94 0 11.88 0 18 0 C18 10.89 18 21.78 18 33 C17.67 33 17.34 33 17 33 C17 23.1 17 13.2 17 3 C11.72 2.67 6.44 2.34 1 2 C1 31.7 1 61.4 1 92 C0.67 92 0.34 92 0 92 C0 61.64 0 31.28 0 0 Z " fill="#240500" transform="translate(372,50)"/>
<path d="M0 0 C6.27 0 12.54 0 19 0 C19.01458252 1.37663818 19.02916504 2.75327637 19.04418945 4.17163086 C19.10243927 9.3100703 19.17967008 14.44808371 19.26245117 19.58618164 C19.29557536 21.80420993 19.32364569 24.02231997 19.34643555 26.24047852 C19.38021202 29.44061924 19.43253953 32.64001913 19.48828125 35.83984375 C19.49467117 36.82145981 19.5010611 37.80307587 19.50764465 38.81443787 C19.64492662 45.3358376 19.98191159 52.70728665 24.60346985 57.74937439 C25.0643248 58.16208084 25.52517975 58.57478729 26 59 C23.125 58.8125 23.125 58.8125 20 58 C18.14229588 54.51309086 17.75392228 51.56897107 17.77294922 47.65893555 C17.77310028 46.6182341 17.77325134 45.57753265 17.77340698 44.5052948 C17.78889084 42.83784966 17.78889084 42.83784966 17.8046875 41.13671875 C17.8075174 39.98959915 17.81034729 38.84247955 17.81326294 37.66059875 C17.82444303 34.00279232 17.84954405 30.34523222 17.875 26.6875 C17.88503259 24.20508167 17.89415795 21.72265949 17.90234375 19.24023438 C17.92437533 13.16006158 17.95889065 7.08007253 18 1 C12.39 1 6.78 1 1 1 C1 19.48 1 37.96 1 57 C0.67 57 0.34 57 0 57 C0 38.19 0 19.38 0 0 Z " fill="#361402" transform="translate(451,78)"/>
<path d="M0 0 C0.66 0 1.32 0 2 0 C2.00808685 0.7052179 2.01617371 1.41043579 2.02450562 2.13702393 C2.10249207 8.78762825 2.18979487 15.43803765 2.28752708 22.08838272 C2.33744294 25.50728559 2.38377312 28.92615828 2.421875 32.34521484 C2.46585076 36.27719477 2.52548319 40.2088625 2.5859375 44.140625 C2.59748871 45.36678528 2.60903992 46.59294556 2.62094116 47.85626221 C2.64081085 48.99714294 2.66068054 50.13802368 2.68115234 51.31347656 C2.69447601 52.31719299 2.70779968 53.32090942 2.7215271 54.3550415 C3.00668479 57.06349273 3.7150462 58.6372982 5 61 C5.125 63.75 5.125 63.75 5 66 C2.14745615 64.57372808 1.63961495 62.46447414 0.61752319 59.56445312 C-0.63428589 54.36593466 -0.36125441 49.06646638 -0.29296875 43.75 C-0.28872391 42.49614502 -0.28447906 41.24229004 -0.28010559 39.95043945 C-0.26622169 36.64264213 -0.23934353 33.33529618 -0.20599365 30.02764893 C-0.17511574 26.64218627 -0.1615627 23.25665712 -0.14648438 19.87109375 C-0.11350263 13.24722144 -0.06336837 6.62364758 0 0 Z " fill="#140504" transform="translate(452,79)"/>
<path d="M0 0 C1.32 0.33 2.64 0.66 4 1 C3.34 1 2.68 1 2 1 C1.34 2.65 0.68 4.3 0 6 C-0.99 6 -1.98 6 -3 6 C-3.33 22.5 -3.66 39 -4 56 C-4.99 56.495 -4.99 56.495 -6 57 C-6.10170678 50.29236858 -6.17159405 43.58493721 -6.21972656 36.87670898 C-6.2397992 34.59635995 -6.26706343 32.31606211 -6.30175781 30.03588867 C-6.35046609 26.75166158 -6.37301286 23.46811708 -6.390625 20.18359375 C-6.41127014 19.16978134 -6.43191528 18.15596893 -6.45318604 17.11143494 C-6.45515802 10.84239112 -5.63238115 7.15006289 -2 2 C-1.34 2 -0.68 2 0 2 C0 1.34 0 0.68 0 0 Z " fill="#EE9B2B" transform="translate(399,94)"/>
<path d="M0 0 C1.65 0 3.3 0 5 0 C5 3.3 5 6.6 5 10 C4.67 10 4.34 10 4 10 C4 7.03 4 4.06 4 1 C3.34 1 2.68 1 2 1 C1.62101562 1.90878906 1.62101562 1.90878906 1.234375 2.8359375 C-1.27599768 7.2370339 -6.35415191 9.23193756 -10.8125 11.3125 C-19.66398495 13.22164381 -27.94039251 12.25012811 -36 8 C-36.66 7.01 -37.32 6.02 -38 5 C-33.85351967 5.47844004 -30.68439654 6.09837598 -27 8 C-21.19261274 9.45184682 -15.77354773 9.10941909 -10.1875 6.875 C-8 6 -8 6 -5 7 C-5 6.34 -5 5.68 -5 5 C-4.34 5 -3.68 5 -3 5 C-2.690625 4.360625 -2.38125 3.72125 -2.0625 3.0625 C-1 1 -1 1 0 0 Z " fill="#230C01" transform="translate(495,140)"/>
<path d="M0 0 C4.93823063 4.26483555 5.48778459 9.79010669 6 16 C6.12698762 19.90708933 6.11682622 23.80994644 6.09765625 27.71875 C6.0962413 28.81723267 6.09482635 29.91571533 6.09336853 31.04748535 C6.08780257 34.53168543 6.07525639 38.01581958 6.0625 41.5 C6.0574806 43.8723949 6.05291846 46.24479082 6.04882812 48.6171875 C6.0378443 54.41148056 6.0211403 60.20573557 6 66 C5.67 66 5.34 66 5 66 C3.78572088 53.7544048 3.66886198 41.48179218 3.4375 29.1875 C3.39421594 27.03059219 3.35059884 24.87369105 3.30664062 22.71679688 C3.20058726 17.47793514 3.0986455 12.23900619 3 7 C2.01 6.67 1.02 6.34 0 6 C0 4.02 0 2.04 0 0 Z " fill="#51290F" transform="translate(432,84)"/>
<path d="M0 0 C0.66 0 1.32 0 2 0 C2.78467287 18.07950353 3.16469693 35.92031997 2 54 C1.34 54 0.68 54 0 54 C-0.33 54.66 -0.66 55.32 -1 56 C-0.67 37.52 -0.34 19.04 0 0 Z " fill="#EB9A38" transform="translate(439,96)"/>
<path d="M0 0 C0.33 0 0.66 0 1 0 C1 15.51 1 31.02 1 47 C0.34 47 -0.32 47 -1 47 C-1.0928125 48.3303125 -1.0928125 48.3303125 -1.1875 49.6875 C-2.19453736 53.79311386 -3.78879509 55.32399591 -7 58 C-9.86822318 58.95607439 -11.94244746 59.22692707 -14.9375 59.3125 C-16.21947266 59.36857422 -16.21947266 59.36857422 -17.52734375 59.42578125 C-20.75724443 58.86960562 -21.9177916 57.44937276 -24 55 C-23.11957031 55.08378906 -22.23914063 55.16757813 -21.33203125 55.25390625 C-20.17058594 55.35574219 -19.00914062 55.45757812 -17.8125 55.5625 C-16.66394531 55.66691406 -15.51539063 55.77132812 -14.33203125 55.87890625 C-11.31368801 55.98859985 -8.91076064 55.74002389 -6 55 C-6 54.34 -6 53.68 -6 53 C-5.34 53 -4.68 53 -4 53 C-4 52.01 -4 51.02 -4 50 C-3.34 50 -2.68 50 -2 50 C-2 47.36 -2 44.72 -2 42 C-1.67 42 -1.34 42 -1 42 C-0.67 28.14 -0.34 14.28 0 0 Z " fill="#B98348" transform="translate(497,78)"/>
<path d="M0 0 C6.79924392 -0.07588365 13.59837922 -0.12852926 20.39794922 -0.16479492 C22.71244385 -0.17990853 25.02690974 -0.20039996 27.34130859 -0.22631836 C30.66250696 -0.26258841 33.98332768 -0.27970044 37.3046875 -0.29296875 C38.86411575 -0.31619453 38.86411575 -0.31619453 40.45504761 -0.33988953 C41.41589264 -0.34011612 42.37673767 -0.34034271 43.36669922 -0.34057617 C44.21497284 -0.34723801 45.06324646 -0.35389984 45.93722534 -0.36076355 C46.9582988 -0.18218559 46.9582988 -0.18218559 48 0 C48.66 0.99 49.32 1.98 50 3 C33.5 3 17 3 0 3 C0 2.01 0 1.02 0 0 Z " fill="#212121" transform="translate(16,47)"/>
<path d="M0 0 C4.55015476 4.55015476 4.2776691 11.18067027 4.32226562 17.25390625 C4.31743164 18.73697266 4.31743164 18.73697266 4.3125 20.25 C4.32861328 21.22324219 4.34472656 22.19648437 4.36132812 23.19921875 C4.36588921 30.0682055 3.58146865 36.5789435 1 43 C0.01 43.495 0.01 43.495 -1 44 C-1.51926752 34.61472034 -1.51926752 34.61472034 0.5 30.1875 C3.0485418 24.26908538 3.30538359 16.38694121 0.98828125 10.375 C0.66214844 9.59125 0.33601562 8.8075 0 8 C-0.23608151 5.29450593 -0.09234983 2.72432002 0 0 Z " fill="#2A0D03" transform="translate(597,92)"/>
<path d="M0 0 C0.88494141 -0.01224609 1.76988281 -0.02449219 2.68164062 -0.03710938 C3.52791016 -0.03904297 4.37417969 -0.04097656 5.24609375 -0.04296875 C6.02525146 -0.04707764 6.80440918 -0.05118652 7.60717773 -0.05541992 C9.5625 0.1875 9.5625 0.1875 11.5625 2.1875 C4.9625 2.5175 -1.6375 2.8475 -8.4375 3.1875 C-8.7675 17.3775 -9.0975 31.5675 -9.4375 46.1875 C-9.7675 46.1875 -10.0975 46.1875 -10.4375 46.1875 C-10.46277062 39.79712769 -10.48033317 33.40676817 -10.49243164 27.01635742 C-10.49747308 24.84057127 -10.50430607 22.66478853 -10.51293945 20.48901367 C-10.52501338 17.36896933 -10.53073005 14.24896962 -10.53515625 11.12890625 C-10.54031754 10.14974747 -10.54547882 9.17058868 -10.55079651 8.16175842 C-10.55087204 7.26090012 -10.55094757 6.36004181 -10.55102539 5.43188477 C-10.553246 4.63468521 -10.55546661 3.83748566 -10.55775452 3.01612854 C-10.24542701 -1.73322313 -3.58752925 0.00260154 0 0 Z " fill="#EBAC61" transform="translate(506.4375,74.8125)"/>
<path d="M0 0 C2.71627574 1.37393017 4.7259075 2.90727234 6.75 5.1875 C6.75 5.5175 6.75 5.8475 6.75 6.1875 C2.03974573 5.73459094 -0.585774 5.1188808 -4.25 2.1875 C-8.4901554 1.01270465 -12.69851419 1.07071118 -17.0625 1.125 C-17.75537109 1.12951172 -18.44824219 1.13402344 -19.16210938 1.13867188 C-20.85811068 1.15036844 -22.55406703 1.16830076 -24.25 1.1875 C-21.11134895 -5.0898021 -5.34624478 -2.31141276 0 0 Z " fill="#331104" transform="translate(425.25,77.8125)"/>
<path d="M0 0 C0.33 0 0.66 0 1 0 C1.33 11.22 1.66 22.44 2 34 C4.31 32.02 6.62 30.04 9 28 C12.80429585 26.32610983 15.8589095 25.75640644 20 26 C17.53241292 28.18286549 16.19648241 28.97249246 12.875 29.4375 C11.92625 29.623125 10.9775 29.80875 10 30 C9.29848848 31.3153341 8.63474075 32.65117592 8 34 C5.0625 35.8125 5.0625 35.8125 2 37 C1.01 36.67 0.02 36.34 -1 36 C-0.67 24.12 -0.34 12.24 0 0 Z " fill="#48280D" transform="translate(549,50)"/>
<path d="M0 0 C0.99 0 1.98 0 3 0 C3.66 1.98 4.32 3.96 5 6 C7.31 6.33 9.62 6.66 12 7 C12.33 7.99 12.66 8.98 13 10 C18.21518521 10.1837788 18.21518521 10.1837788 23.3125 9.375 C23.869375 9.25125 24.42625 9.1275 25 9 C25.99 9.66 26.98 10.32 28 11 C21.55430005 12.88388815 14.25751686 13.3385895 7.99609375 10.765625 C4.13026209 8.49226839 1.50895923 6.76343884 -1 3 C-0.34 3 0.32 3 1 3 C0.67 2.01 0.34 1.02 0 0 Z " fill="#351A08" transform="translate(552,140)"/>
<path d="M0 0 C0.33 0 0.66 0 1 0 C1.0248244 6.1197887 1.04291879 12.23954771 1.05493164 18.359375 C1.05994271 20.43880728 1.06675335 22.51823607 1.07543945 24.59765625 C1.08764683 27.59636297 1.09326071 30.59502286 1.09765625 33.59375 C1.10281754 34.51490601 1.10797882 35.43606201 1.11329651 36.38513184 C1.11375124 41.68503511 0.77330942 46.75541013 0 52 C-0.66 52 -1.32 52 -2 52 C-2.02749766 50.62511713 -2.0466164 49.25006609 -2.0625 47.875 C-2.07410156 47.10929687 -2.08570313 46.34359375 -2.09765625 45.5546875 C-2 43 -2 43 -1.51367188 40.3828125 C-0.9005033 36.34475937 -0.77115445 32.39833544 -0.68359375 28.3203125 C-0.66281265 27.50754852 -0.64203156 26.69478455 -0.62062073 25.85739136 C-0.55562421 23.28000743 -0.49647407 20.70252806 -0.4375 18.125 C-0.39426723 16.36978209 -0.35065148 14.61457357 -0.30664062 12.859375 C-0.19999451 8.57301262 -0.09858886 4.28655496 0 0 Z " fill="#EB9A35" transform="translate(495,76)"/>
<path d="M0 0 C0.721875 0.144375 1.44375 0.28875 2.1875 0.4375 C3.5796875 0.7159375 3.5796875 0.7159375 5 1 C6.66666667 1.33333333 8.33333333 1.66666667 10 2 C10 2.66 10 3.32 10 4 C10.66 4 11.32 4 12 4 C12 4.66 12 5.32 12 6 C13.1446875 6.061875 13.1446875 6.061875 14.3125 6.125 C17 7 17 7 18.8125 10.0625 C19.204375 11.031875 19.59625 12.00125 20 13 C19.34 13.66 18.68 14.32 18 15 C17.2575 13.948125 16.515 12.89625 15.75 11.8125 C11.57586709 6.85193625 5.97510564 5.09805489 0 3 C0 2.01 0 1.02 0 0 Z " fill="#CF914B" transform="translate(577,74)"/>
<path d="M0 0 C1.546875 0.00580078 1.546875 0.00580078 3.125 0.01171875 C5.98832586 0.31127866 7.6115641 0.74657183 10 2.3125 C14.09559748 7.4043239 14.09559748 7.4043239 13.75 10.6875 C13.5025 11.22375 13.255 11.76 13 12.3125 C12.05598958 10.5546875 11.11197917 8.796875 10.16796875 7.0390625 C8.95236507 5.00747635 8.95236507 5.00747635 6 3.3125 C2.79620876 3.07003217 2.79620876 3.07003217 -0.6875 3.1875 C-1.86699219 3.20554687 -3.04648437 3.22359375 -4.26171875 3.2421875 C-5.61716797 3.27699219 -5.61716797 3.27699219 -7 3.3125 C-7.66 4.9625 -8.32 6.6125 -9 8.3125 C-9.99 7.9825 -10.98 7.6525 -12 7.3125 C-9.55866492 1.4126069 -6.24743451 -0.10152081 0 0 Z " fill="#C98F4C" transform="translate(565,90.6875)"/>
<path d="M0 0 C1.31226563 0.00386719 2.62453125 0.00773437 3.9765625 0.01171875 C7.375 0.3125 7.375 0.3125 10.375 2.3125 C9.32441406 2.33828125 8.27382813 2.3640625 7.19140625 2.390625 C-3.3944338 2.77017686 -11.45621641 3.93424385 -19.625 11.3125 C-19.625 9.6625 -19.625 8.0125 -19.625 6.3125 C-17.96484375 5.62890625 -16.3046875 4.9453125 -14.64453125 4.26171875 C-12.51284877 3.3301865 -12.51284877 3.3301865 -10.36328125 1.7265625 C-6.76688264 -0.13063621 -4.02762802 -0.05163626 0 0 Z " fill="#D3995C" transform="translate(569.625,73.6875)"/>
<path d="M0 0 C0.66 1.32 1.32 2.64 2 4 C1.34 4 0.68 4 0 4 C-0.09667969 4.87205078 -0.09667969 4.87205078 -0.1953125 5.76171875 C-1.32877809 8.91451383 -3.1427486 9.9316023 -5.875 11.8125 C-6.75929688 12.43769531 -7.64359375 13.06289062 -8.5546875 13.70703125 C-9.36164062 14.13371094 -10.16859375 14.56039062 -11 15 C-11.99 14.67 -12.98 14.34 -14 14 C-13.01 13.67 -12.02 13.34 -11 13 C-11 12.34 -11 11.68 -11 11 C-9.68 10.67 -8.36 10.34 -7 10 C-7.3403125 9.1028125 -7.3403125 9.1028125 -7.6875 8.1875 C-8 6 -8 6 -6.875 4.25 C-4.46145349 2.64096899 -2.84326464 2.76946503 0 3 C0 2.01 0 1.02 0 0 Z " fill="#1E0E06" transform="translate(594,135)"/>
<path d="M0 0 C3.11985669 1.11734403 6.05973774 2.47541957 9 4 C9 4.33 9 4.66 9 5 C7.7625 4.855625 6.525 4.71125 5.25 4.5625 C-0.49002931 3.92166738 -6.24293318 3.4578378 -12 3 C-8.11014265 -0.23725435 -4.96096364 -0.82249833 0 0 Z M-18 3 C-16.02 3 -14.04 3 -12 3 C-15 5 -15 5 -18 5 C-18 4.34 -18 3.68 -18 3 Z " fill="#150101" transform="translate(577,76)"/>
<path d="M0 0 C3 1 3 1 5.25 3.3125 C12.03471752 9.94301939 17.75442155 10.69636852 27 11 C27 11.33 27 11.66 27 12 C13.00843484 12.88429836 13.00843484 12.88429836 6.62109375 7.98046875 C4.86885271 6.66399751 4.86885271 6.66399751 2 7.6875 C1.34 8.120625 0.68 8.55375 0 9 C0 6.03 0 3.06 0 0 Z " fill="#C39156" transform="translate(548,141)"/>
<path d="M0 0 C2.54173977 -0.02716824 5.08318415 -0.04691969 7.625 -0.0625 C8.33785156 -0.07087891 9.05070312 -0.07925781 9.78515625 -0.08789062 C13.97344438 -0.10710296 17.8728462 0.1732673 22 1 C22 1.66 22 2.32 22 3 C20.75863281 3.06058594 19.51726562 3.12117188 18.23828125 3.18359375 C16.59634423 3.26803623 14.95441768 3.35268236 13.3125 3.4375 C12.49587891 3.47681641 11.67925781 3.51613281 10.83789062 3.55664062 C6.80344189 3.76898003 2.94252691 4.04447922 -1 5 C-0.67 3.35 -0.34 1.7 0 0 Z " fill="#ED9D35" transform="translate(449,73)"/>
<path d="M0 0 C0.33 0 0.66 0 1 0 C1.01981934 0.67466309 1.03963867 1.34932617 1.06005859 2.04443359 C1.1563811 5.15495861 1.2656181 8.26490789 1.375 11.375 C1.4059375 12.43589844 1.436875 13.49679688 1.46875 14.58984375 C1.68613958 20.49559402 2.22304183 26.08422289 3.5234375 31.85351562 C4.19625487 34.88395125 4.59867162 37.92314911 5 41 C2.20174868 39.60087434 1.62404768 37.6378712 0.61083984 34.78125 C-0.76972342 28.49532807 -0.29924465 21.90388201 -0.1875 15.5 C-0.1724286 13.99480503 -0.15874453 12.48959549 -0.14648438 10.984375 C-0.11366687 7.32261059 -0.06201989 3.66139979 0 0 Z " fill="#170000" transform="translate(452,104)"/>
<path d="M0 0 C0.6875 1.6875 0.6875 1.6875 1 4 C-0.25 6.75 -0.25 6.75 -2 9 C-2.99 9 -3.98 9 -5 9 C-5 10.32 -5 11.64 -5 13 C-6.65 13.33 -8.3 13.66 -10 14 C-10 14.66 -10 15.32 -10 16 C-13.72430357 16.69289369 -17.21083746 17.11144596 -21 17 C-18.99699665 15.99177684 -16.99116678 14.99581227 -14.96484375 14.03515625 C-14.29582031 13.71417969 -13.62679687 13.39320313 -12.9375 13.0625 C-12.26589844 12.74410156 -11.59429688 12.42570313 -10.90234375 12.09765625 C-8.92646151 11.06803663 -8.92646151 11.06803663 -7.37890625 9.37109375 C-6 8 -6 8 -4 8 C-3.67 6.68 -3.34 5.36 -3 4 C-2.34 4 -1.68 4 -1 4 C-0.67 2.68 -0.34 1.36 0 0 Z " fill="#D0944A" transform="translate(597,135)"/>
<path d="M0 0 C0.67740234 -0.01224609 1.35480469 -0.02449219 2.05273438 -0.03710938 C5.77191947 -0.04801608 8.53094986 0.13452523 11.6875 2.1875 C10.594375 2.31125 9.50125 2.435 8.375 2.5625 C4.61368198 2.94214801 4.61368198 2.94214801 1.6875 5.1875 C-0.28515625 5.015625 -0.28515625 5.015625 -2.375 4.4375 C-3.06722656 4.25703125 -3.75945313 4.0765625 -4.47265625 3.890625 C-6.3125 3.1875 -6.3125 3.1875 -8.3125 1.1875 C-6.34773763 -0.77726237 -2.67718224 0.00250438 0 0 Z " fill="#F3982B" transform="translate(572.3125,153.8125)"/>
<path d="M0 0 C0.66 0 1.32 0 2 0 C1.68289063 0.95003906 1.36578125 1.90007812 1.0390625 2.87890625 C-0.28865417 7.52591459 -0.44952696 12.13026971 -0.625 16.9375 C-0.66367187 17.81212891 -0.70234375 18.68675781 -0.7421875 19.58789062 C-0.8356107 21.72494631 -0.91885398 23.86244294 -1 26 C-3 24 -3 24 -3.16015625 21.46875 C-3.12792969 20.4890625 -3.09570312 19.509375 -3.0625 18.5 C-2.82877701 14.59995188 -2.82877701 14.59995188 -4 11 C-3.73046875 9.16015625 -3.73046875 9.16015625 -3.1875 7.0625 C-3.01605469 6.37285156 -2.84460938 5.68320313 -2.66796875 4.97265625 C-2 3 -2 3 0 0 Z " fill="#2F1205" transform="translate(551,96)"/>
<path d="M0 0 C0.66 0 1.32 0 2 0 C2 3.3 2 6.6 2 10 C7.61 10 13.22 10 19 10 C19 10.33 19 10.66 19 11 C13.06 11.33 7.12 11.66 1 12 C0.34 10.35 -0.32 8.7 -1 7 C-1.99 6.67 -2.98 6.34 -4 6 C-2.7260411 3.96166576 -1.38938077 1.96147874 0 0 Z " fill="#E5A052" transform="translate(497,141)"/>
<path d="M0 0 C0.99 0.495 0.99 0.495 2 1 C2 9.58 2 18.16 2 27 C3.32 26.34 4.64 25.68 6 25 C8.75 24.875 8.75 24.875 11 25 C7.40538913 28.1837982 5.92129494 29.01574101 1 30 C0.67 20.1 0.34 10.2 0 0 Z " fill="#ED9A2F" transform="translate(551,49)"/>
<path d="M0 0 C2.41793589 1.20896794 2.79103206 1.58206411 4 4 C2.68 4 1.36 4 0 4 C-0.33 4.99 -0.66 5.98 -1 7 C-3.52053595 8.26026798 -4.8542098 7.91874445 -7.625 7.5625 C-8.85089844 7.40974609 -8.85089844 7.40974609 -10.1015625 7.25390625 C-11.04128906 7.12822266 -11.04128906 7.12822266 -12 7 C-9.50601226 4.50601226 -7.16447538 3.89386667 -3.875 2.78125 C-1.80424247 2.05807568 -1.80424247 2.05807568 0 0 Z " fill="#D18D3F" transform="translate(493,145)"/>
<path d="M0 0 C1.33333333 0.66666667 2.66666667 1.33333333 4 2 C3.67 3.32 3.34 4.64 3 6 C1.68 6.33 0.36 6.66 -1 7 C-1.33 12.61 -1.66 18.22 -2 24 C-2.33 24 -2.66 24 -3 24 C-3.02895225 20.70835171 -3.0467823 17.41673601 -3.0625 14.125 C-3.07506836 12.71927734 -3.07506836 12.71927734 -3.08789062 11.28515625 C-3.09111328 10.38925781 -3.09433594 9.49335938 -3.09765625 8.5703125 C-3.10289307 7.74289551 -3.10812988 6.91547852 -3.11352539 6.06298828 C-3 4 -3 4 -2 2 C-1.34 2 -0.68 2 0 2 C0 1.34 0 0.68 0 0 Z " fill="#E09F53" transform="translate(356,19)"/>
<path d="M0 0 C1.32 0 2.64 0 4 0 C4 0.99 4 1.98 4 3 C3.34 3 2.68 3 2 3 C2 3.66 2 4.32 2 5 C-2.77573323 7.61895048 -6.84434881 6.83119431 -12 6 C-12 5.34 -12 4.68 -12 4 C-12.66 4 -13.32 4 -14 4 C-13.67 3.01 -13.34 2.02 -13 1 C-13 1.66 -13 2.32 -13 3 C-9.26317891 4.81502739 -6.99179743 5.33059914 -3 4 C-2.67 3.34 -2.34 2.68 -2 2 C-1.34 2 -0.68 2 0 2 C0 1.34 0 0.68 0 0 Z " fill="#ED992F" transform="translate(489,128)"/>
<path d="M0 0 C3.12492251 -0.05791844 6.24970766 -0.09356746 9.375 -0.125 C10.26445312 -0.14175781 11.15390625 -0.15851563 12.0703125 -0.17578125 C12.92109375 -0.18222656 13.771875 -0.18867187 14.6484375 -0.1953125 C15.82672119 -0.21102295 15.82672119 -0.21102295 17.02880859 -0.22705078 C19 0 19 0 21 2 C10.605 2.495 10.605 2.495 0 3 C0 2.01 0 1.02 0 0 Z " fill="#E6A14E" transform="translate(497,75)"/>
<path d="M0 0 C0.66 0.33 1.32 0.66 2 1 C0.47005208 2.23697917 -1.05989583 3.47395833 -2.58984375 4.7109375 C-4.13266437 5.9666391 -4.13266437 5.9666391 -5 8 C-8.3 7.67 -11.6 7.34 -15 7 C-15 6.01 -15 5.02 -15 4 C-14.08476562 3.87882813 -13.16953125 3.75765625 -12.2265625 3.6328125 C-11.03804688 3.46523437 -9.84953125 3.29765625 -8.625 3.125 C-7.44164062 2.96257812 -6.25828125 2.80015625 -5.0390625 2.6328125 C-1.90433341 2.2697415 -1.90433341 2.2697415 0 0 Z " fill="#341A08" transform="translate(492,133)"/>
<path d="M0 0 C0.33 0 0.66 0 1 0 C1.05805933 4.24994263 1.09361654 8.49978324 1.125 12.75 C1.15013672 14.55984375 1.15013672 14.55984375 1.17578125 16.40625 C1.18222656 17.56640625 1.18867187 18.7265625 1.1953125 19.921875 C1.20578613 20.99018555 1.21625977 22.05849609 1.22705078 23.15917969 C1.00161519 25.97979105 0.45848994 27.60787463 -1 30 C-1.66 30 -2.32 30 -3 30 C-2.690625 28.7625 -2.38125 27.525 -2.0625 26.25 C-0.30361525 17.64269164 -0.31350653 8.75524345 0 0 Z " fill="#BB834C" transform="translate(601,104)"/>
<path d="M0 0 C3.85103301 0.53675903 5.31797587 2.11600923 7.75 5.0625 C8.36359375 5.79597656 8.9771875 6.52945313 9.609375 7.28515625 C10.06828125 7.85105469 10.5271875 8.41695312 11 9 C10.67 9.66 10.34 10.32 10 11 C8.125 10.75 8.125 10.75 6 10 C5 8.1875 5 8.1875 4 6 C3.29875 5.29875 2.5975 4.5975 1.875 3.875 C1.25625 3.25625 0.6375 2.6375 0 2 C0 1.34 0 0.68 0 0 Z " fill="#301407" transform="translate(586,81)"/>
<path d="M0 0 C1.485 0.99 1.485 0.99 3 2 C5.75417318 2.30066154 8.42645147 2.50925299 11.1875 2.625 C12.31188477 2.68300781 12.31188477 2.68300781 13.45898438 2.7421875 C15.30559199 2.83628216 17.1527619 2.91922319 19 3 C19 3.33 19 3.66 19 4 C18.01257813 4.03738281 17.02515625 4.07476562 16.0078125 4.11328125 C14.08582031 4.21189453 14.08582031 4.21189453 12.125 4.3125 C10.84882813 4.37050781 9.57265625 4.42851562 8.2578125 4.48828125 C7.18273437 4.65714844 6.10765625 4.82601562 5 5 C4.01 6.485 4.01 6.485 3 8 C2.34 8 1.68 8 1 8 C0.67 5.36 0.34 2.72 0 0 Z " fill="#F29728" transform="translate(369,150)"/>
<path d="M0 0 C0.66 0 1.32 0 2 0 C1.15777172 9.2286716 1.15777172 9.2286716 0.4375 12.75 C-0.10267627 15.52804938 -0.0656399 18.17748449 0 21 C-2 19 -2 19 -2.01171875 15.6640625 C-1.91454043 14.31687815 -1.80599372 12.97047707 -1.6875 11.625 C-1.63916016 10.95210937 -1.59082031 10.27921875 -1.54101562 9.5859375 C-1.2857359 6.30284629 -0.94799787 3.15999291 0 0 Z " fill="#EC9E38" transform="translate(553,98)"/>
<path d="M0 0 C3.39488422 2.05107588 4.80323081 3.70484621 7 7 C6.625 9.1875 6.625 9.1875 6 11 C3 6.25 3 6.25 3 4 C-2.39460953 1.72858546 -7.26157749 1.79586639 -13 2 C-8.7609119 -0.82605874 -4.97875497 -0.66012246 0 0 Z " fill="#E79932" transform="translate(571,93)"/>
<path d="M0 0 C0.33 0 0.66 0 1 0 C1 9.24 1 18.48 1 28 C1.66 28 2.32 28 3 28 C2.34 29.32 1.68 30.64 1 32 C0.67 32 0.34 32 0 32 C0 21.44 0 10.88 0 0 Z " fill="#D8A360" transform="translate(391,53)"/>
<path d="M0 0 C0.61746094 0.20496094 1.23492187 0.40992188 1.87109375 0.62109375 C7.62710276 2.45215293 12.97978316 3.51449864 19 4 C19 4.33 19 4.66 19 5 C16.79194476 5.0544452 14.58349446 5.09299283 12.375 5.125 C11.14523437 5.14820313 9.91546875 5.17140625 8.6484375 5.1953125 C5.05683959 5.0030428 2.33338825 4.30258556 -1 3 C-0.67 2.01 -0.34 1.02 0 0 Z " fill="#C28846" transform="translate(460,148)"/>
<path d="M0 0 C0.33 0.99 0.66 1.98 1 3 C-0.60515402 6.21030804 -2.68834001 6.7581275 -6 8 C-9.06011283 7.96012882 -11.99354982 7.55452303 -15 7 C-15 6.67 -15 6.34 -15 6 C-11.7 6 -8.4 6 -5 6 C-4.34 4.68 -3.68 3.36 -3 2 C-2.01 1.34 -1.02 0.68 0 0 Z " fill="#EA9932" transform="translate(575,127)"/>
<path d="M0 0 C0.99 0.495 0.99 0.495 2 1 C2 5.29 2 9.58 2 14 C2.99 14.33 3.98 14.66 5 15 C4.34 16.32 3.68 17.64 3 19 C1.51171875 18.01171875 1.51171875 18.01171875 0 16 C-0.21714241 13.18872957 -0.28284276 10.6116655 -0.1875 7.8125 C-0.17396484 7.06291016 -0.16042969 6.31332031 -0.14648438 5.54101562 C-0.11118539 3.69370233 -0.05737917 1.84675934 0 0 Z " fill="#F09828" transform="translate(355,160)"/>
<path d="M0 0 C1.65 0 3.3 0 5 0 C5 3.3 5 6.6 5 10 C4.67 10 4.34 10 4 10 C4 7.03 4 4.06 4 1 C3.34 1 2.68 1 2 1 C1.773125 1.598125 1.54625 2.19625 1.3125 2.8125 C-0.33811133 5.56351888 -2.1972081 6.52484637 -5 8 C-5 7.01 -5 6.02 -5 5 C-4.34 5 -3.68 5 -3 5 C-2.5359375 4.0409375 -2.5359375 4.0409375 -2.0625 3.0625 C-1 1 -1 1 0 0 Z " fill="#36190B" transform="translate(495,140)"/>
<path d="M0 0 C3.64575537 3.64575537 4.125 8.45017592 4.125 13.4375 C4.08375 14.613125 4.0425 15.78875 4 17 C3.31379969 15.67661368 2.65213539 14.34050052 2 13 C1.62875 12.2575 1.2575 11.515 0.875 10.75 C-0.30641152 7.03699237 -0.1318343 3.88911182 0 0 Z " fill="#3C1D0A" transform="translate(597,92)"/>
<path d="M0 0 C0.66 0.33 1.32 0.66 2 1 C2 1.66 2 2.32 2 3 C1.20335937 3.02578125 0.40671875 3.0515625 -0.4140625 3.078125 C-6.81759882 3.42089337 -11.07896378 3.76244103 -16 8 C-16.33 7.01 -16.66 6.02 -17 5 C-11.04604246 1.21996701 -6.89092794 0.53248757 0 2 C0 1.34 0 0.68 0 0 Z " fill="#341909" transform="translate(569,88)"/>
<path d="M0 0 C2 2 2 2 2 5 C-4.6 5 -11.2 5 -18 5 C-18 4.34 -18 3.68 -18 3 C-9.585 2.505 -9.585 2.505 -1 2 C-0.67 1.34 -0.34 0.68 0 0 Z " fill="#EC9628" transform="translate(437,150)"/>
<path d="M0 0 C7.96006656 -0.30615641 7.96006656 -0.30615641 11 2 C15.09559748 7.0918239 15.09559748 7.0918239 14.75 10.375 C14.37875 11.179375 14.37875 11.179375 14 12 C13.443125 10.906875 12.88625 9.81375 12.3125 8.6875 C10.3682794 5.29880565 8.65065044 3.60272458 5 2 C2.30745009 1.29329272 2.30745009 1.29329272 0 1 C0 0.67 0 0.34 0 0 Z " fill="#DAA362" transform="translate(564,91)"/>
<path d="M0 0 C3.16115776 1.36983503 3.9927092 1.9890638 6 5 C6 5.99 6 6.98 6 8 C4.35 7.67 2.7 7.34 1 7 C0.67 4.69 0.34 2.38 0 0 Z " fill="#2A2A2A" transform="translate(73,109)"/>
<path d="M0 0 C0.66 0.99 1.32 1.98 2 3 C1.34 3 0.68 3 0 3 C-0.4640625 4.175625 -0.4640625 4.175625 -0.9375 5.375 C-2 8 -2 8 -3 10 C-3.66 10 -4.32 10 -5 10 C-5.33 10.99 -5.66 11.98 -6 13 C-5.25531915 5.25531915 -5.25531915 5.25531915 -2 2 C-1.34 2 -0.68 2 0 2 C0 1.34 0 0.68 0 0 Z " fill="#C88E4C" transform="translate(397,93)"/>
<path d="M0 0 C5.41390868 0.46671627 9.20517932 1.24297811 14 4 C14 4.33 14 4.66 14 5 C11.03 4.67 8.06 4.34 5 4 C4.67 3.01 4.34 2.02 4 1 C1.98491642 0.26676204 1.98491642 0.26676204 0 0 Z " fill="#230802" transform="translate(572,76)"/>
<path d="M0 0 C3.08503079 0.30850308 5.3340109 0.99909336 8.125 2.3125 C8.125 2.6425 8.125 2.9725 8.125 3.3125 C3.505 3.3125 -1.115 3.3125 -5.875 3.3125 C-2.875 0.3125 -2.875 0.3125 0 0 Z " fill="#EC9A2C" transform="translate(571.875,70.6875)"/>
<path d="M0 0 C0.99 0.33 1.98 0.66 3 1 C-0.20760251 4.80635497 -3.40746109 8.54563567 -7 12 C-7.66 11.67 -8.32 11.34 -9 11 C-7.71937515 9.2925002 -6.38232443 7.62626404 -5 6 C-4.34 6 -3.68 6 -3 6 C-2.690625 5.38125 -2.38125 4.7625 -2.0625 4.125 C-1.375 2.75 -0.6875 1.375 0 0 Z " fill="#CDCDCD" transform="translate(178,85)"/>
<path d="M0 0 C0.82041075 2.29715009 1.1049494 3.62684659 0.4375 6 C-1.62668295 8.87190671 -3.90615877 10.32932574 -7 12 C-9.375 11.75 -9.375 11.75 -11 11 C-9.88625 10.4225 -8.7725 9.845 -7.625 9.25 C-4.66807857 7.57739798 -3.07684279 6.35017758 -2 3 C-1.34 3 -0.68 3 0 3 C0 2.01 0 1.02 0 0 Z " fill="#46260C" transform="translate(580,125)"/>
<path d="M0 0 C0.33 0 0.66 0 1 0 C1.19389096 2.4788213 1.38040123 4.95780931 1.5625 7.4375 C1.61857422 8.14455078 1.67464844 8.85160156 1.73242188 9.58007812 C1.86190993 11.38427837 1.93521608 13.19231952 2 15 C1.67 15.33 1.34 15.66 1 16 C0.63837971 17.32594105 0.30271961 18.65938457 0 20 C0 19.34 0 18.68 0 18 C-0.66 18 -1.32 18 -2 18 C-1.34 12.06 -0.68 6.12 0 0 Z " fill="#383838" transform="translate(100,115)"/>
<path d="M0 0 C2.74554724 2.37115444 3.95117186 4.53079925 5 8 C5.125 11.3125 5.125 11.3125 5 14 C4.34 13.67 3.68 13.34 3 13 C3 11.02 3 9.04 3 7 C2.01 6.67 1.02 6.34 0 6 C0 4.02 0 2.04 0 0 Z " fill="#3C1C08" transform="translate(432,84)"/>
<path d="M0 0 C0.1875 3.625 0.1875 3.625 0 7 C-1.37562854 5.71034824 -2.70766393 4.37310707 -4 3 C-4 2.34 -4 1.68 -4 1 C-5.32 0.34 -6.64 -0.32 -8 -1 C-3.375 -2.25 -3.375 -2.25 0 0 Z " fill="#351C0A" transform="translate(579,92)"/>
<path d="M0 0 C0.66 1.32 1.32 2.64 2 4 C1.01 4.66 0.02 5.32 -1 6 C-0.67 6.66 -0.34 7.32 0 8 C-0.66 8 -1.32 8 -2 8 C-2.33 8.66 -2.66 9.32 -3 10 C-3.99 10.33 -4.98 10.66 -6 11 C-4.18690997 7.22272911 -2.0926741 3.62730178 0 0 Z " fill="#DEDEDE" transform="translate(221,85)"/>
<path d="M0 0 C6.52307692 0.61538462 6.52307692 0.61538462 8.9375 2.5625 C9.288125 3.036875 9.63875 3.51125 10 4 C8.375 4.75 8.375 4.75 6 5 C2.75 3.125 2.75 3.125 0 1 C0 0.67 0 0.34 0 0 Z " fill="#311206" transform="translate(457,145)"/>
<path d="M0 0 C3.15268314 4.72902471 5.52668153 9.20650322 5 15 C2.00240068 13.50120034 1.69211326 11.19691136 0.59765625 8.14453125 C-0.17376071 5.3765057 -0.21405269 2.8540358 0 0 Z " fill="#2C0E04" transform="translate(452,130)"/>
<path d="M0 0 C2.31 0 4.62 0 7 0 C7 0.99 7 1.98 7 3 C6.01 3 5.02 3 4 3 C4 3.66 4 4.32 4 5 C2.68 4.67 1.36 4.34 0 4 C0 2.68 0 1.36 0 0 Z " fill="#080808" transform="translate(232,120)"/>
<path d="M0 0 C0.66 0 1.32 0 2 0 C3.28317892 3.84953676 3.06643637 6.94738135 3 11 C0.17661571 7.8083482 -0.62384955 5.23169259 -1 1 C-0.67 0.67 -0.34 0.34 0 0 Z " fill="#0D0D0D" transform="translate(72,71)"/>
<path d="M0 0 C0.0825 0.61875 0.165 1.2375 0.25 1.875 C0.81258459 4.18437567 0.81258459 4.18437567 3.0625 5.25 C3.701875 5.4975 4.34125 5.745 5 6 C5 6.66 5 7.32 5 8 C6.32 8.33 7.64 8.66 9 9 C6.25 9.3125 6.25 9.3125 3 9 C0.5625 6.75 0.5625 6.75 -1 4 C-0.75 1.6875 -0.75 1.6875 0 0 Z " fill="#CD914F" transform="translate(353,172)"/>
<path d="M0 0 C2.3125 0.1875 2.3125 0.1875 4 1 C3.67 1.99 3.34 2.98 3 4 C0.36 4.33 -2.28 4.66 -5 5 C-2.75 2.4375 -2.75 2.4375 0 0 Z " fill="#343434" transform="translate(316,93)"/>
<path d="M0 0 C-1.2608012 1.03319813 -2.53403258 2.05124379 -3.8125 3.0625 C-4.87404297 3.91521484 -4.87404297 3.91521484 -5.95703125 4.78515625 C-6.63121094 5.18605469 -7.30539062 5.58695313 -8 6 C-8.99 5.67 -9.98 5.34 -11 5 C-10.01 4.67 -9.02 4.34 -8 4 C-8 3.34 -8 2.68 -8 2 C-3.61016949 -1.20338983 -3.61016949 -1.20338983 0 0 Z " fill="#2D1102" transform="translate(591,144)"/>
<path d="M0 0 C6.50381098 -0.36814024 6.50381098 -0.36814024 8.9375 1.4375 C10 3 10 3 10 4 C3.47692308 3.38461538 3.47692308 3.38461538 1.0625 1.4375 C0.711875 0.963125 0.36125 0.48875 0 0 Z " fill="#281009" transform="translate(422,80)"/>
<path d="M0 0 C0 3 0 3 -2 5.1875 C-2.66 5.785625 -3.32 6.38375 -4 7 C-4 6.34 -4 5.68 -4 5 C-7.3 5 -10.6 5 -14 5 C-14 4.67 -14 4.34 -14 4 C-13.32453125 3.96261719 -12.6490625 3.92523438 -11.953125 3.88671875 C-11.06109375 3.82097656 -10.1690625 3.75523437 -9.25 3.6875 C-8.36828125 3.62949219 -7.4865625 3.57148438 -6.578125 3.51171875 C-3.67696226 2.9358819 -2.20774393 1.92403852 0 0 Z " fill="#AAAAAA" transform="translate(256,133)"/>
<path d="M0 0 C0.66 0 1.32 0 2 0 C1.67 6.27 1.34 12.54 1 19 C0.67 19 0.34 19 0 19 C-0.1938211 16.02111874 -0.38035102 13.04209754 -0.5625 10.0625 C-0.61857422 9.21236328 -0.67464844 8.36222656 -0.73242188 7.48632812 C-0.80493164 6.27299805 -0.80493164 6.27299805 -0.87890625 5.03515625 C-0.9260376 4.2862915 -0.97316895 3.53742676 -1.02172852 2.76586914 C-1 1 -1 1 0 0 Z " fill="#434343" transform="translate(211,101)"/>
<path d="M0 0 C2.96175123 0.61277612 4.38058783 1.25372522 7 3 C7.6875 5.625 7.6875 5.625 8 8 C7.01 8 6.02 8 5 8 C4.67 6.35 4.34 4.7 4 3 C3.34 3 2.68 3 2 3 C2 2.34 2 1.68 2 1 C1.34 0.67 0.68 0.34 0 0 Z " fill="#CA9453" transform="translate(608,19)"/>
<path d="M0 0 C0.33 0 0.66 0 1 0 C1.33 1.98 1.66 3.96 2 6 C0.02 6.99 0.02 6.99 -2 8 C-2 8.66 -2 9.32 -2 10 C-2.66 9.67 -3.32 9.34 -4 9 C-3.34 7.02 -2.68 5.04 -2 3 C-1.34 3 -0.68 3 0 3 C0 2.01 0 1.02 0 0 Z " fill="#3D1D0B" transform="translate(498,122)"/>
<path d="M0 0 C0.99 0.33 1.98 0.66 3 1 C2.690625 1.680625 2.38125 2.36125 2.0625 3.0625 C0.86629351 6.36965912 0.40994603 9.51545878 0 13 C-0.33 13 -0.66 13 -1 13 C-1.02686553 11.02090602 -1.04633375 9.04171029 -1.0625 7.0625 C-1.07410156 5.96035156 -1.08570313 4.85820313 -1.09765625 3.72265625 C-1 1 -1 1 0 0 Z " fill="#290E00" transform="translate(391,96)"/>
<path d="M0 0 C2.76477453 2.76477453 2.52458441 5.1966753 3 9 C3.33 9.66 3.66 10.32 4 11 C2.68 10.67 1.36 10.34 0 10 C0 6.7 0 3.4 0 0 Z " fill="#C38436" transform="translate(452,136)"/>
<path d="M0 0 C2 2 2 2 2 5 C1.01 5.66 0.02 6.32 -1 7 C-1.99 6.67 -2.98 6.34 -4 6 C-2.68 4.02 -1.36 2.04 0 0 Z " fill="#292929" transform="translate(93,85)"/>
<path d="M0 0 C0.99 0.66 1.98 1.32 3 2 C2.67 2.66 2.34 3.32 2 4 C1.34 4 0.68 4 0 4 C0 5.32 0 6.64 0 8 C-0.99 8 -1.98 8 -3 8 C-2.37240135 5.07120629 -1.41377341 2.63904371 0 0 Z " fill="#1A0E0D" transform="translate(548,137)"/>
<path d="M0 0 C0.99 0 1.98 0 3 0 C2.42655063 2.86724686 2.1385485 3.8614515 0 6 C-0.99 6 -1.98 6 -3 6 C-3 5.34 -3 4.68 -3 4 C-2.34 4 -1.68 4 -1 4 C-0.67 2.68 -0.34 1.36 0 0 Z " fill="#E0E0E0" transform="translate(275,130)"/>
<path d="M0 0 C-3.69172595 3.53790403 -7.09390595 3.59115883 -12 4 C-11 2 -11 2 -8.25 0.875 C-5.29813104 0.08026605 -3.02780163 -0.17810598 0 0 Z " fill="#3D1806" transform="translate(569,76)"/>
<path d="M0 0 C1.33333333 0.66666667 2.66666667 1.33333333 4 2 C3.67 3.32 3.34 4.64 3 6 C2.01 6 1.02 6 0 6 C0 5.34 0 4.68 0 4 C-0.66 4 -1.32 4 -2 4 C-2 3.34 -2 2.68 -2 2 C-1.34 2 -0.68 2 0 2 C0 1.34 0 0.68 0 0 Z " fill="#CC883A" transform="translate(356,19)"/>
<path d="M0 0 C0.66 0.33 1.32 0.66 2 1 C2 1.99 2 2.98 2 4 C1.34 4 0.68 4 0 4 C-0.66 5.32 -1.32 6.64 -2 8 C-3.125 4.25 -3.125 4.25 -2 2 C-1.34 2 -0.68 2 0 2 C0 1.34 0 0.68 0 0 Z " fill="#ECECEC" transform="translate(164,121)"/>
<path d="M0 0 C1.9451 2.91765 2.45276317 4.62537285 3 8 C1.02 8.99 1.02 8.99 -1 10 C-0.67 6.7 -0.34 3.4 0 0 Z " fill="#CFCFCF" transform="translate(185,103)"/>
<path d="M0 0 C3 3.625 3 3.625 3 7 C2.01 7 1.02 7 0 7 C-0.66 5.35 -1.32 3.7 -2 2 C-1.34 2 -0.68 2 0 2 C0 1.34 0 0.68 0 0 Z " fill="#111111" transform="translate(98,104)"/>
<path d="M0 0 C0.66 0.33 1.32 0.66 2 1 C1.25 3.4375 1.25 3.4375 0 6 C-2.125 6.8125 -2.125 6.8125 -4 7 C-3.43628586 3.73045798 -2.50037734 2.17424117 0 0 Z " fill="#080510" transform="translate(400,81)"/>
<path d="M0 0 C0.66 0 1.32 0 2 0 C0.75023244 3.65316671 0.32901247 4.78065836 -3 7 C-3.66 6.34 -4.32 5.68 -5 5 C-3.625 3.5 -3.625 3.5 -2 2 C-1.34 2 -0.68 2 0 2 C0 1.34 0 0.68 0 0 Z " fill="#D19753" transform="translate(614,174)"/>
<path d="M0 0 C0 0.66 0 1.32 0 2 C-3.72430357 2.69289369 -7.21083746 3.11144596 -11 3 C-7.13828168 1.00255949 -4.44822596 0 0 0 Z " fill="#BF8941" transform="translate(587,149)"/>
<path d="M0 0 C2.09749995 2.35968744 2.96905704 3.54616994 3.1875 6.75 C3.0946875 7.86375 3.0946875 7.86375 3 9 C2.34 9 1.68 9 1 9 C-0.4783226 6.04335481 -0.06032783 3.25770263 0 0 Z " fill="#130503" transform="translate(500,140)"/>
<path d="M0 0 C2.17854707 3.2678206 3.49760034 6.38058265 5 10 C3.68 9.67 2.36 9.34 1 9 C0.67 6.03 0.34 3.06 0 0 Z " fill="#411E0B" transform="translate(550,122)"/>
<path d="M0 0 C0.66 0.66 1.32 1.32 2 2 C0.68 3.65 -0.64 5.3 -2 7 C-2.66 6.67 -3.32 6.34 -4 6 C-2.25 1.125 -2.25 1.125 0 0 Z " fill="#191919" transform="translate(167,95)"/>
<path d="M0 0 C0.66 1.32 1.32 2.64 2 4 C0.625 6 0.625 6 -1 8 C-1.66 8 -2.32 8 -3 8 C-3.33 7.01 -3.66 6.02 -4 5 C-3.01 5 -2.02 5 -1 5 C-0.67 3.35 -0.34 1.7 0 0 Z " fill="#3B3B3B" transform="translate(331,90)"/>
<path d="M0 0 C0.99 0.33 1.98 0.66 3 1 C3.33 3.97 3.66 6.94 4 10 C0 4 0 4 0 0 Z " fill="#E19F51" transform="translate(596,87)"/>
<path d="M0 0 C0.66 0 1.32 0 2 0 C2 2.31 2 4.62 2 7 C1.67 6.34 1.34 5.68 1 5 C0.01 5 -0.98 5 -2 5 C-1.34 3.35 -0.68 1.7 0 0 Z " fill="#C39A76" transform="translate(497,141)"/>
<path d="M0 0 C2.475 0.99 2.475 0.99 5 2 C5 1.34 5 0.68 5 0 C5.66 0.33 6.32 0.66 7 1 C6.67 2.32 6.34 3.64 6 5 C1.125 2.25 1.125 2.25 0 0 Z " fill="#C2C2C2" transform="translate(223,144)"/>
<path d="M0 0 C0.66 0 1.32 0 2 0 C0.52307692 4.67692308 0.52307692 4.67692308 -2.125 6.3125 C-3.053125 6.6528125 -3.053125 6.6528125 -4 7 C-4 6.01 -4 5.02 -4 4 C-3.01 4 -2.02 4 -1 4 C-0.67 2.68 -0.34 1.36 0 0 Z " fill="#D99D57" transform="translate(576,128)"/>
<path d="M0 0 C1.80411967 2.75924185 2.0127245 3.88972103 1.625 7.25 C1.41875 8.1575 1.2125 9.065 1 10 C-1.56687367 6.1496895 -0.83288724 4.41430237 0 0 Z " fill="#C78E4B" transform="translate(579,99)"/>
<path d="M0 0 C1.0625 1.875 1.0625 1.875 2 4 C1.67 4.66 1.34 5.32 1 6 C-0.32 5.67 -1.64 5.34 -3 5 C-1.125 1.125 -1.125 1.125 0 0 Z " fill="#292929" transform="translate(237,93)"/>
<path d="M0 0 C1.485 0.99 1.485 0.99 3 2 C3.1875 4.625 3.1875 4.625 3 7 C2.67 6.34 2.34 5.68 2 5 C1.01 5.33 0.02 5.66 -1 6 C-0.67 4.02 -0.34 2.04 0 0 Z " fill="#150405" transform="translate(594,90)"/>
<path d="M0 0 C2.99324263 1.0975223 3.84610901 1.67682892 5.25 4.625 C5.4975 5.40875 5.745 6.1925 6 7 C5.34 7.66 4.68 8.32 4 9 C2 6 2 6 2 3 C1.34 2.01 0.68 1.02 0 0 Z " fill="#D38F3A" transform="translate(591,80)"/>
<path d="M0 0 C0.33 0 0.66 0 1 0 C1 2.64 1 5.28 1 8 C1.66 8 2.32 8 3 8 C2.34 9.32 1.68 10.64 1 12 C0.67 12 0.34 12 0 12 C0 8.04 0 4.08 0 0 Z " fill="#D3A573" transform="translate(391,73)"/>
<path d="M0 0 C0 0.66 0 1.32 0 2 C-0.66 2 -1.32 2 -2 2 C-2.33 3.65 -2.66 5.3 -3 7 C-5 4 -5 4 -5 1 C-3 0 -3 0 0 0 Z " fill="#2F1405" transform="translate(356,19)"/>
</svg>
