<?xml version="1.0" encoding="UTF-8"?>
<svg version="1.1" xmlns="http://www.w3.org/2000/svg" width="1280" height="309">
<path d="M0 0 C93.48389571 0 93.48389571 0 106.25 11.625 C115.94534936 21.78479723 116.53775861 33.98040868 116.33203125 47.2265625 C115.91520148 57.9063245 111.81809934 65.17655512 104.48046875 72.796875 C100.11694123 76.67251204 95.02982995 81 89 81 C92.45752165 88.15903531 96.26348366 95.03577386 100.3125 101.875 C106.0410085 111.61883973 111.68321265 121.40763724 117.27090454 131.23257446 C120.54910312 136.99590214 123.83260916 142.75365033 127.234375 148.4453125 C127.70842773 149.23881104 128.18248047 150.03230957 128.67089844 150.84985352 C129.52748179 152.27586654 130.38969826 153.6985184 131.25878906 155.11694336 C134 159.67423652 134 159.67423652 134 163 C126.74217853 163.33062973 119.48630454 163.55765019 112.22265625 163.71411133 C109.75447044 163.77934473 107.28678439 163.86796083 104.8203125 163.98071289 C85.01351486 164.86323351 85.01351486 164.86323351 80.17953491 161.87442017 C76.88258094 158.52853209 75.52371749 154.34503539 74 150 C72.90959854 147.99034423 71.78138941 146.00066254 70.61328125 144.03515625 C68.97921895 141.08845498 67.35362425 138.137193 65.72851562 135.18554688 C59.70014976 124.31483823 53.33501377 113.72079254 47 103 C46.67 122.8 46.34 142.6 46 163 C30.82 163 15.64 163 0 163 C0 109.21 0 55.42 0 0 Z M46 23 C46 37.52 46 52.04 46 67 C55.10279389 67.15049417 55.10279389 67.15049417 62.51171875 62.60546875 C67.47991511 56.98243848 67.20654622 51.75141971 67.25 44.625 C67.270625 43.78710938 67.29125 42.94921875 67.3125 42.0859375 C67.34465496 36.97329965 66.95851439 33.36059294 64 29 C58.34299019 23.79284342 58.34299019 23.79284342 46 23 Z " fill="#FEFEFE" transform="translate(545,67)"/>
<path d="M0 0 C91.83928571 0 91.83928571 0 104.22265625 10.96875 C113.62437321 20.6692131 115.74820919 30.78903798 115.58984375 43.91357422 C115.10510155 56.10107968 110.95213324 64.69214907 102 73 C95.99061033 78 95.99061033 78 93 78 C93 78.66 93 79.32 93 80 C94.2065625 80.309375 94.2065625 80.309375 95.4375 80.625 C105.64836793 84.56603674 112.53005542 91.35129625 117.23828125 101.10546875 C120.91956252 110.26147601 120.51427211 123.95718366 117.4375 133.1875 C111.763317 145.93443223 101.62820041 153.79471739 89 159 C63.00178515 168.06424248 24.44629683 163 0 163 C0 109.21 0 55.42 0 0 Z M46 23 C46 37.85 46 52.7 46 68 C56.66356652 67.45931451 56.66356652 67.45931451 65 62 C68.02707687 56.47016673 68.49199894 51.80015134 68.4375 45.5625 C68.45748047 44.75490234 68.47746094 43.94730469 68.49804688 43.11523438 C68.49262168 36.38256772 66.89182008 30.98256757 62.1328125 26.07421875 C59.39455052 24.6950575 56.90616951 24.24818407 53.875 23.8125 C52.29332031 23.57466797 52.29332031 23.57466797 50.6796875 23.33203125 C48.11922632 22.95901121 48.11922632 22.95901121 46 23 Z M46 92 C46 107.51 46 123.02 46 139 C58.25719525 138.13249186 58.25719525 138.13249186 67 131 C70.66146642 121.55942801 71.32044998 111.90618905 68.09375 102.30078125 C66.23196041 98.38437387 63.81695457 96.02908737 60 94 C55.30341502 92.51154384 50.91677034 92 46 92 Z " fill="#FEFEFE" transform="translate(80,67)"/>
<path d="M0 0 C91.83928571 0 91.83928571 0 104.22265625 10.96875 C113.62437321 20.6692131 115.74820919 30.78903798 115.58984375 43.91357422 C115.13369717 55.3821217 111.55700665 63.05515918 103.76953125 71.453125 C102 73 102 73 100 73 C100 73.66 100 74.32 100 75 C95.61538462 78 95.61538462 78 93 78 C93 78.66 93 79.32 93 80 C94.2065625 80.309375 94.2065625 80.309375 95.4375 80.625 C105.64836793 84.56603674 112.53005542 91.35129625 117.23828125 101.10546875 C120.91956252 110.26147601 120.51427211 123.95718366 117.4375 133.1875 C111.763317 145.93443223 101.62820041 153.79471739 89 159 C63.00178515 168.06424248 24.44629683 163 0 163 C0 109.21 0 55.42 0 0 Z M46 23 C46 37.85 46 52.7 46 68 C55.47010996 67.64976656 55.47010996 67.64976656 63 64 C67.72466401 57.87070615 68.22752068 53.239693 68.3125 45.8125 C68.35600586 44.5740332 68.35600586 44.5740332 68.40039062 43.31054688 C68.47065827 36.45134356 66.98957168 31.08338669 62.1328125 26.07421875 C59.39455052 24.6950575 56.90616951 24.24818407 53.875 23.8125 C52.29332031 23.57466797 52.29332031 23.57466797 50.6796875 23.33203125 C48.11922632 22.95901121 48.11922632 22.95901121 46 23 Z M46 92 C46 107.51 46 123.02 46 139 C58.25719525 138.13249186 58.25719525 138.13249186 67 131 C70.66146642 121.55942801 71.32044998 111.90618905 68.09375 102.30078125 C66.23196041 98.38437387 63.81695457 96.02908737 60 94 C55.30341502 92.51154384 50.91677034 92 46 92 Z " fill="#FEFEFE" transform="translate(1088,67)"/>
<path d="M0 0 C15.18 0 30.36 0 46 0 C46 20.79 46 41.58 46 63 C56.56 63 67.12 63 78 63 C78 42.21 78 21.42 78 0 C93.18 0 108.36 0 124 0 C124 53.46 124 106.92 124 162 C108.82 162 93.64 162 78 162 C78 138.57 78 115.14 78 91 C67.44 91 56.88 91 46 91 C46 114.43 46 137.86 46 162 C30.82 162 15.64 162 0 162 C0 108.54 0 55.08 0 0 Z " fill="#FEFEFE" transform="translate(809,68)"/>
<path d="M0 0 C15.18 0 30.36 0 46 0 C46.33 21.12 46.66 42.24 47 64 C58.75702485 44.89839574 58.75702485 44.89839574 70.4375 25.75 C84.67486702 2.32513298 84.67486702 2.32513298 87 0 C89.95705321 -0.08868299 92.89065056 -0.11520296 95.84765625 -0.09765625 C97.17729652 -0.09553383 97.17729652 -0.09553383 98.53379822 -0.09336853 C101.37673254 -0.08775215 104.21958931 -0.07519691 107.0625 -0.0625 C108.98502491 -0.05748711 110.90755104 -0.05292384 112.83007812 -0.04882812 C117.55341549 -0.03777741 122.27669458 -0.02050183 127 0 C125.81885719 3.16011672 124.57179959 5.87195919 122.6015625 8.609375 C122.12855713 9.27251709 121.65555176 9.93565918 121.16821289 10.61889648 C120.65895264 11.32216064 120.14969238 12.0254248 119.625 12.75 C118.53238167 14.27722184 117.43993855 15.80456905 116.34765625 17.33203125 C115.78965332 18.10885254 115.23165039 18.88567383 114.65673828 19.68603516 C112.59668249 22.56331319 110.56112609 25.45732004 108.52709961 28.35302734 C102.72449413 36.61151135 96.83206489 44.80333424 90.91015625 52.9765625 C90.42562988 53.65493164 89.94110352 54.33330078 89.44189453 55.03222656 C88.48689569 56.3355267 87.49802636 57.61472068 86.47607422 58.86621094 C83.60479282 62.4396426 83.60479282 62.4396426 83.19311523 66.86303711 C84.03595541 70.13978551 85.18126244 72.60604573 86.8515625 75.54296875 C87.44791504 76.60290039 88.04426758 77.66283203 88.65869141 78.75488281 C89.30757324 79.88764648 89.95645508 81.02041016 90.625 82.1875 C91.30351194 83.38716397 91.98106696 84.5873696 92.65771484 85.78808594 C94.06505575 88.28381344 95.47649097 90.77715892 96.890625 93.26904297 C100.17837871 99.07214674 103.39603876 104.91403917 106.625 110.75 C111.38720143 119.32917615 116.17505007 127.89344923 121 136.4375 C121.53471924 137.38496094 122.06943848 138.33242187 122.62036133 139.30859375 C125.96824315 145.22376592 129.38201077 151.09016774 132.92578125 156.890625 C134 159 134 159 134 162 C126.70487782 162.22847266 119.41067925 162.3859144 112.11279297 162.49438477 C109.63132251 162.53960555 107.15009133 162.60099528 104.66943359 162.67895508 C101.09933501 162.78833135 97.53240742 162.8392093 93.9609375 162.87890625 C92.85446869 162.92535782 91.74799988 162.97180939 90.60800171 163.01966858 C83.07979581 163.02458631 83.07979581 163.02458631 80.03182983 160.13246155 C78.45900768 157.82076256 77.19984834 155.52294149 76 153 C75.44425293 152.02071533 74.88850586 151.04143066 74.31591797 150.0324707 C73.87908691 149.17226318 73.44225586 148.31205566 72.9921875 147.42578125 C72.4861499 146.43884277 71.9801123 145.4519043 71.45874023 144.43505859 C70.93610596 143.40461426 70.41347168 142.37416992 69.875 141.3125 C65.49338305 132.77803798 61.04253417 124.29122079 56.4375 115.875 C55.94942871 114.98208252 55.46135742 114.08916504 54.95849609 113.16918945 C52.35163383 108.41691682 49.6900173 103.70753028 47 99 C46.67 119.79 46.34 140.58 46 162 C30.82 162 15.64 162 0 162 C0 108.54 0 55.08 0 0 Z " fill="#FEFEFE" transform="translate(279,68)"/>
<path d="M0 0 C15.18 0 30.36 0 46 0 C46.02505615 3.36026367 46.0501123 6.72052734 46.07592773 10.18261719 C46.15959632 21.31456725 46.24825637 32.44647359 46.33933926 43.57836533 C46.39444275 50.32419973 46.44788508 57.07003941 46.49731445 63.81591797 C46.54523343 70.33228344 46.59758398 76.84859993 46.65294075 83.36490631 C46.67324024 85.84462506 46.69197274 88.32435717 46.70907402 90.80410004 C46.73339505 94.29099833 46.76340846 97.77780645 46.79467773 101.26464844 C46.80331093 102.78488365 46.80331093 102.78488365 46.81211853 104.33583069 C46.3883956 118.30816018 46.3883956 118.30816018 51 131 C55.59125899 135.12905171 61.01886285 135.56179329 67 136 C72.42499578 135.57645382 76.83184937 133.47345886 81 130 C85.19623525 121.47176287 84.1524933 110.5673995 84.20532227 101.26464844 C84.21522186 100.16074265 84.22512146 99.05683685 84.23532104 97.91947937 C84.26659262 94.31613212 84.29155582 90.71277175 84.31640625 87.109375 C84.33700554 84.59303469 84.35800273 82.0766976 84.37937927 79.56036377 C84.42869789 73.64277732 84.4740411 67.72517115 84.51740164 61.80753827 C84.57193486 54.39900216 84.63274196 46.99051964 84.69335938 39.58203125 C84.80056483 26.38805592 84.90161725 13.19404407 85 0 C96.22 0 107.44 0 119 0 C119.06789271 15.69958046 119.12308362 31.39904335 119.15543652 47.09872818 C119.1708622 54.38944021 119.19186874 61.68005411 119.22631836 68.97070312 C119.2563532 75.33010865 119.27560619 81.68944304 119.28226548 88.04891753 C119.28615413 91.41185692 119.29680984 94.77443282 119.31719017 98.13733673 C119.33910361 101.90450384 119.34196105 105.67125554 119.34057617 109.43847656 C119.351362 110.53612335 119.36214783 111.63377014 119.3732605 112.76467896 C119.32110809 125.95484462 115.73596019 138.63623407 107.75 149.3125 C94.96950992 161.80252439 80.84256711 165.37038456 63.41821289 165.31567383 C61.33360533 165.31253181 59.25044691 165.33597727 57.16601562 165.36132812 C39.55700678 165.44573757 24.11180887 161.73475433 11.125 149.2890625 C3.58705141 141.16913994 -0.1313596 130.70280254 -0.12025452 119.65324402 C-0.12162918 118.59460144 -0.12300385 117.53595886 -0.12442017 116.44523621 C-0.12082489 115.29437027 -0.11722961 114.14350433 -0.11352539 112.95776367 C-0.11367142 111.73783722 -0.11381744 110.51791077 -0.1139679 109.26101685 C-0.11339142 105.92461808 -0.10838293 102.58828152 -0.10139394 99.25189376 C-0.0951343 95.76186924 -0.09455453 92.27184385 -0.09336853 88.78181458 C-0.09026291 82.17689522 -0.08205989 75.57199247 -0.07201904 68.96708041 C-0.06083401 61.44594904 -0.05534143 53.92481687 -0.05032361 46.40367925 C-0.03987664 30.93577493 -0.02154072 15.46789346 0 0 Z " fill="#FEFEFE" transform="translate(951,68)"/>
<path d="M0 0 C35.31 0 70.62 0 107 0 C107 7.59 107 15.18 107 23 C86.87 23 66.74 23 46 23 C46 37.85 46 52.7 46 68 C61.84 68 77.68 68 94 68 C94 75.92 94 83.84 94 92 C78.16 92 62.32 92 46 92 C46 107.51 46 123.02 46 139 C66.79 139 87.58 139 109 139 C109 146.59 109 154.18 109 162 C108 163 108 163 106.19027615 163.12304783 C105.3947688 163.12212604 104.59926146 163.12120424 103.77964783 163.12025452 C102.87144507 163.12163201 101.96324232 163.12300951 101.02751827 163.12442875 C100.01933324 163.12083064 99.0111482 163.11723253 97.97241211 163.11352539 C96.90177552 163.11364593 95.83113894 163.11376646 94.72805882 163.11389065 C91.24446637 163.11314115 87.76092669 163.10551126 84.27734375 163.09765625 C82.13383001 163.09618694 79.99031592 163.09516616 77.84680176 163.09460449 C69.87702905 163.08935029 61.90726401 163.07538923 53.9375 163.0625 C36.138125 163.041875 18.33875 163.02125 0 163 C0 109.21 0 55.42 0 0 Z " fill="#FEFEFE" transform="translate(425,67)"/>
<path d="M0 0 C0 9.24 0 18.48 0 28 C-4.01429784 27.33095036 -6.83391543 26.84054086 -10.4609375 25.44140625 C-11.26273438 25.13783203 -12.06453125 24.83425781 -12.890625 24.52148438 C-13.71046875 24.20501953 -14.5303125 23.88855469 -15.375 23.5625 C-26.35786527 19.33496853 -37.84887136 15.28295712 -49.5625 19.1875 C-53.14561111 21.85186467 -55.59815689 23.75418525 -56.41796875 28.3359375 C-56.66108804 32.71208465 -56.62245825 35.04175937 -54.16796875 38.8203125 C-50.07895396 43.3643892 -44.78995758 46.55297957 -39.75 49.9375 C-32.64824209 54.75295004 -25.71286643 59.65416328 -19 65 C-17.99710938 65.77085937 -16.99421875 66.54171875 -15.9609375 67.3359375 C-6.23123933 75.00799557 1.32050775 83.61358938 4 96 C5.42316891 113.29060157 4.06935555 127.69053788 -6.99804688 141.58251953 C-14.885978 150.86498606 -25.98008591 156.94757823 -38 159 C-59.03997525 160.41227498 -83.71770286 158.64114857 -103 149 C-103 138.77 -103 128.54 -103 118 C-99.8341333 119.26634668 -96.67564412 120.54109079 -93.5234375 121.83984375 C-72.67931083 131.00827929 -72.67931083 131.00827929 -50.4375 130.23828125 C-46.6194306 128.46259824 -44.23568233 126.63627155 -42 123 C-41.41814492 120.66130163 -41.41814492 120.66130163 -41.4375 118.1875 C-41.39496094 117.37667969 -41.35242188 116.56585938 -41.30859375 115.73046875 C-43.43754714 107.32290706 -52.3287651 102.68792219 -59.0625 98.1875 C-61.12911984 96.77695768 -63.19423399 95.36420672 -65.2578125 93.94921875 C-66.7432959 92.93287354 -66.7432959 92.93287354 -68.25878906 91.89599609 C-82.98158098 81.71277539 -97.72336839 70.32562449 -102 52 C-102.42208131 48.2184679 -102.47712851 44.48994975 -102.4375 40.6875 C-102.42992676 39.67220215 -102.42235352 38.6569043 -102.41455078 37.61083984 C-102.12966134 24.64525104 -98.23121427 14.8543357 -89.5 5.25 C-88.675 4.5075 -87.85 3.765 -87 3 C-86.113125 2.175 -85.22625 1.35 -84.3125 0.5 C-60.89022081 -18.63624357 -25.81365881 -7.04008877 0 0 Z " fill="#FEFEFE" transform="translate(789,73)"/>
<path d="M0 0 C15.18 0 30.36 0 46 0 C46 53.46 46 106.92 46 162 C30.82 162 15.64 162 0 162 C0 108.54 0 55.08 0 0 Z " fill="#FEFEFE" transform="translate(216,68)"/>
</svg>
